999
dxfrw 0.6.3
  0
SECTION
  2
HEADER
  9
$ACADVER
  1
AC1021
  9
$DWGCODEPAGE
  3
ANSI_1252
  9
$INSBASE
 10
0
 20
0
 30
0
  9
$EXTMIN
 10
-8.822516478423353
 20
-7.957130542990001
 30
0
  9
$EXTMAX
 10
8.892483521576647
 20
9.757249477010006
 30
0
  9
$LIMMIN
 10
0
 20
0
  9
$LIMMAX
 10
420
 20
297
  9
$ORTHOMODE
 70
    0
  9
$REGENMODE
 70
    1
  9
$FILLMODE
 70
    1
  9
$QTEXTMODE
 70
    0
  9
$MIRRTEXT
 70
    0
  9
$LTSCALE
 40
1
  9
$ATTMODE
 70
    0
  9
$TEXTSIZE
 40
2.5
  9
$TRACEWID
 40
15.68
  9
$TEXTSTYLE
  7
STANDARD
  9
$CLAYER
  8
0
  9
$CELTYPE
  6
BYLAYER
  9
$CECOLOR
 62
  256
  9
$CELTSCALE
 40
1
  9
$DISPSILH
 70
    0
  9
$DIMSCALE
 40
2.5
  9
$DIMASZ
 40
2.5
  9
$DIMEXO
 40
0.625
  9
$DIMDLI
 40
3.75
  9
$DIMRND
 40
0
  9
$DIMDLE
 40
0
  9
$DIMEXE
 40
1.25
  9
$DIMTP
 40
0
  9
$DIMTM
 40
0
  9
$DIMTXT
 40
2.5
  9
$DIMCEN
 40
2.5
  9
$DIMTSZ
 40
0
  9
$DIMTOL
 70
    0
  9
$DIMLIM
 70
    0
  9
$DIMTIH
 70
    0
  9
$DIMTOH
 70
    0
  9
$DIMSE1
 70
    0
  9
$DIMSE2
 70
    0
  9
$DIMTAD
 70
    1
  9
$DIMZIN
 70
    8
  9
$DIMBLK
  1

  9
$DIMASO
 70
    1
  9
$DIMSHO
 70
    1
  9
$DIMPOST
  1

  9
$DIMAPOST
  1

  9
$DIMALT
 70
    0
  9
$DIMALTD
 70
    3
  9
$DIMALTF
 40
0.03937
  9
$DIMLFAC
 40
1
  9
$DIMTOFL
 70
    1
  9
$DIMTVP
 40
0
  9
$DIMTIX
 70
    0
  9
$DIMSOXD
 70
    0
  9
$DIMSAH
 70
    0
  9
$DIMBLK1
  1

  9
$DIMBLK2
  1

  9
$DIMSTYLE
  2
Standard
  9
$DIMCLRD
 70
    0
  9
$DIMCLRE
 70
    0
  9
$DIMCLRT
 70
    0
  9
$DIMTFAC
 40
1
  9
$DIMGAP
 40
0.625
  9
$DIMJUST
 70
    0
  9
$DIMSD1
 70
    0
  9
$DIMSD2
 70
    0
  9
$DIMTOLJ
 70
    0
  9
$DIMTZIN
 70
    8
  9
$DIMALTZ
 70
    0
  9
$DIMALTTZ
 70
    0
  9
$DIMUPT
 70
    0
  9
$DIMDEC
 70
    2
  9
$DIMTDEC
 70
    2
  9
$DIMALTU
 70
    2
  9
$DIMALTTD
 70
    3
  9
$DIMTXSTY
  7
STANDARD
  9
$DIMAUNIT
 70
    0
  9
$DIMADEC
 70
    0
  9
$DIMALTRND
 40
0
  9
$DIMAZIN
 70
    0
  9
$DIMDSEP
 70
   44
  9
$DIMATFIT
 70
    3
  9
$DIMFRAC
 70
    0
  9
$DIMLDRBLK
  1
STANDARD
  9
$DIMLUNIT
 70
    2
  9
$DIMLWD
 70
   -2
  9
$DIMLWE
 70
   -2
  9
$DIMTMOVE
 70
    0
  9
$DIMFXL
 40
1
  9
$DIMFXLON
 70
    0
  9
$DIMJOGANG
 40
0.7854
  9
$DIMTFILL
 70
    0
  9
$DIMTFILLCLR
 70
    0
  9
$DIMARCSYM
 70
    0
  9
$DIMLTYPE
  6

  9
$DIMLTEX1
  6

  9
$DIMLTEX2
  6

  9
$LUNITS
 70
    2
  9
$LUPREC
 70
    4
  9
$SKETCHINC
 40
1
  9
$FILLETRAD
 40
0
  9
$AUNITS
 70
    0
  9
$AUPREC
 70
    2
  9
$MENU
  1
.
  9
$ELEVATION
 40
0
  9
$PELEVATION
 40
0
  9
$THICKNESS
 40
0
  9
$LIMCHECK
 70
    0
  9
$CHAMFERA
 40
0
  9
$CHAMFERB
 40
0
  9
$CHAMFERC
 40
0
  9
$CHAMFERD
 40
0
  9
$SKPOLY
 70
    0
  9
$USRTIMER
 70
    1
  9
$ANGBASE
 50
0
  9
$ANGDIR
 70
    0
  9
$PDMODE
 70
   34
  9
$PDSIZE
 40
0
  9
$PLINEWID
 40
0
  9
$SPLFRAME
 70
    0
  9
$SPLINETYPE
 70
    2
  9
$SPLINESEGS
 70
    8
  9
$HANDSEED
  5
20000
  9
$SURFTAB1
 70
    6
  9
$SURFTAB2
 70
    6
  9
$SURFTYPE
 70
    6
  9
$SURFU
 70
    6
  9
$SURFV
 70
    6
  9
$UCSBASE
  2

  9
$UCSNAME
  2

  9
$UCSORG
 10
0
 20
0
 30
0
  9
$UCSXDIR
 10
1
 20
0
 30
0
  9
$UCSYDIR
 10
0
 20
1
 30
0
  9
$UCSORTHOREF
  2

  9
$UCSORTHOVIEW
 70
    0
  9
$UCSORGTOP
 10
0
 20
0
 30
0
  9
$UCSORGBOTTOM
 10
0
 20
0
 30
0
  9
$UCSORGLEFT
 10
0
 20
0
 30
0
  9
$UCSORGRIGHT
 10
0
 20
0
 30
0
  9
$UCSORGFRONT
 10
0
 20
0
 30
0
  9
$UCSORGBACK
 10
0
 20
0
 30
0
  9
$PUCSBASE
  2

  9
$PUCSNAME
  2

  9
$PUCSORG
 10
0
 20
0
 30
0
  9
$PUCSXDIR
 10
1
 20
0
 30
0
  9
$PUCSYDIR
 10
0
 20
1
 30
0
  9
$PUCSORTHOREF
  2

  9
$PUCSORTHOVIEW
 70
    0
  9
$PUCSORGTOP
 10
0
 20
0
 30
0
  9
$PUCSORGBOTTOM
 10
0
 20
0
 30
0
  9
$PUCSORGLEFT
 10
0
 20
0
 30
0
  9
$PUCSORGRIGHT
 10
0
 20
0
 30
0
  9
$PUCSORGFRONT
 10
0
 20
0
 30
0
  9
$PUCSORGBACK
 10
0
 20
0
 30
0
  9
$USERI1
 70
    0
  9
$USERI2
 70
    0
  9
$USERI3
 70
    0
  9
$USERI4
 70
    0
  9
$USERI5
 70
    0
  9
$USERR1
 40
0
  9
$USERR2
 40
0
  9
$USERR3
 40
0
  9
$USERR4
 40
0
  9
$USERR5
 40
0
  9
$WORLDVIEW
 70
    1
  9
$SHADEDGE
 70
    3
  9
$SHADEDIF
 70
   70
  9
$TILEMODE
 70
    1
  9
$MAXACTVP
 70
   64
  9
$PINSBASE
 10
0
 20
0
 30
0
  9
$PLIMCHECK
 70
    0
  9
$PEXTMIN
 10
0
 20
0
 30
0
  9
$PEXTMAX
 10
0
 20
0
 30
0
  9
$GRIDMODE
 70
    1
  9
$SNAPSTYLE
 70
    0
  9
$PLIMMIN
 10
0
 20
0
  9
$PLIMMAX
 10
210
 20
297
  9
$UNITMODE
 70
    0
  9
$VISRETAIN
 70
    1
  9
$PLINEGEN
 70
    0
  9
$PSLTSCALE
 70
    1
  9
$TREEDEPTH
 70
 3020
  9
$CMLSTYLE
  2
Standard
  9
$CMLJUST
 70
    0
  9
$CMLSCALE
 40
20
  9
$PROXYGRAPHICS
 70
    1
  9
$MEASUREMENT
 70
    1
  9
$CELWEIGHT
370
   -1
  9
$ENDCAPS
280
    0
  9
$JOINSTYLE
280
    0
  9
$LWDISPLAY
290
    0
  9
$INSUNITS
 70
    4
  9
$HYPERLINKBASE
  1

  9
$STYLESHEET
  1

  9
$XEDIT
290
    1
  9
$CEPSNTYPE
380
    0
  9
$PSTYLEMODE
290
    1
  9
$EXTNAMES
290
    1
  9
$PSVPSCALE
 40
1
  9
$OLESTARTUP
290
    0
  9
$SORTENTS
280
  127
  9
$INDEXCTL
280
    0
  9
$HIDETEXT
280
    1
  9
$XCLIPFRAME
290
    0
  9
$HALOGAP
280
    0
  9
$OBSCOLOR
 70
  257
  9
$OBSLTYPE
280
    0
  9
$INTERSECTIONDISPLAY
280
    0
  9
$INTERSECTIONCOLOR
 70
  257
  9
$DIMASSOC
280
    1
  9
$PROJECTNAME
  1

  9
$CAMERADISPLAY
290
    0
  9
$LENSLENGTH
 40
50
  9
$CAMERAHEIGHT
 40
0
  9
$STEPSPERSEC
 40
2
  9
$STEPSIZE
 40
50
  9
$3DDWFPREC
 40
2
  9
$PSOLWIDTH
 40
5
  9
$PSOLHEIGHT
 40
80
  9
$LOFTANG1
 40
1.570796326794897
  9
$LOFTANG2
 40
1.570796326794897
  9
$LOFTMAG1
 40
0
  9
$LOFTMAG2
 40
0
  9
$LOFTPARAM
 70
    7
  9
$LOFTNORMALS
280
    1
  9
$LATITUDE
 40
1
  9
$LONGITUDE
 40
1
  9
$NORTHDIRECTION
 40
0
  9
$TIMEZONE
 70
-8000
  9
$LIGHTGLYPHDISPLAY
280
    1
  9
$TILEMODELIGHTSYNCH
280
    1
  9
$SOLIDHIST
280
    1
  9
$SHOWHIST
280
    1
  9
$DWFFRAME
280
    2
  9
$DGNFRAME
280
    0
  9
$REALWORLDSCALE
290
    1
  9
$INTERFERECOLOR
 62
    1
  9
$CSHADOW
280
    0
  9
$SHADOWPLANELOCATION
 40
0
  0
ENDSEC
  0
SECTION
  2
CLASSES
  0
ENDSEC
  0
SECTION
  2
TABLES
  0
TABLE
  2
VPORT
  5
8
330
0
100
AcDbSymbolTable
 70
    1
  0
VPORT
  5
31
330
2
100
AcDbSymbolTableRecord
100
AcDbViewportTableRecord
  2
*ACTIVE
 70
    0
 10
0
 20
0
 11
1
 21
1
 12
29.73709429379828
 22
9.762352259430866
 13
0
 23
0
 14
10
 24
10
 15
10
 25
10
 16
0
 26
0
 36
1
 17
0
 27
0
 37
0
 40
56.63549041286842
 41
1.931540342298288
 42
50
 43
0
 44
0
 50
0
 51
0
 71
    0
 72
  100
 73
    1
 74
    3
 75
    0
 76
    1
 77
    0
 78
    0
281
    0
 65
    1
110
0
120
0
130
0
111
1
121
0
131
0
112
0
122
1
132
0
 79
    0
146
0
348
10020
 60
    7
 61
    5
292
1
282
    1
141
0
142
0
 63
  250
421
3358443
  0
ENDTAB
  0
TABLE
  2
LTYPE
  5
5
330
0
100
AcDbSymbolTable
 70
    4
  0
LTYPE
  5
14
330
5
100
AcDbSymbolTableRecord
100
AcDbLinetypeTableRecord
  2
ByBlock
 70
    0
  3

 72
   65
 73
    0
 40
0
  0
LTYPE
  5
15
330
5
100
AcDbSymbolTableRecord
100
AcDbLinetypeTableRecord
  2
ByLayer
 70
    0
  3

 72
   65
 73
    0
 40
0
  0
LTYPE
  5
16
330
5
100
AcDbSymbolTableRecord
100
AcDbLinetypeTableRecord
  2
Continuous
 70
    0
  3
Solid line
 72
   65
 73
    0
 40
0
  0
LTYPE
  5
32
330
5
100
AcDbSymbolTableRecord
100
AcDbLinetypeTableRecord
  2
DOT
 70
    0
  3
Dot . . . . . . . . . . . . . . . . . . . . . .
 72
   65
 73
    2
 40
6.35
 49
0
 74
    0
 49
-6.35
 74
    0
  0
LTYPE
  5
33
330
5
100
AcDbSymbolTableRecord
100
AcDbLinetypeTableRecord
  2
DOTTINY
 70
    0
  3
Dot (.15x) .....................................
 72
   65
 73
    2
 40
0.9525
 49
0
 74
    0
 49
-0.9525
 74
    0
  0
LTYPE
  5
34
330
5
100
AcDbSymbolTableRecord
100
AcDbLinetypeTableRecord
  2
DOT2
 70
    0
  3
Dot (.5x) .....................................
 72
   65
 73
    2
 40
3.175
 49
0
 74
    0
 49
-3.175
 74
    0
  0
LTYPE
  5
35
330
5
100
AcDbSymbolTableRecord
100
AcDbLinetypeTableRecord
  2
DOTX2
 70
    0
  3
Dot (2x) .  .  .  .  .  .  .  .  .  .  .  .  .
 72
   65
 73
    2
 40
12.7
 49
0
 74
    0
 49
-12.7
 74
    0
  0
LTYPE
  5
36
330
5
100
AcDbSymbolTableRecord
100
AcDbLinetypeTableRecord
  2
DASHED
 70
    0
  3
Dashed _ _ _ _ _ _ _ _ _ _ _ _ _ _ _ _ _
 72
   65
 73
    2
 40
19.05
 49
12.7
 74
    0
 49
-6.35
 74
    0
  0
LTYPE
  5
37
330
5
100
AcDbSymbolTableRecord
100
AcDbLinetypeTableRecord
  2
DASHEDTINY
 70
    0
  3
Dashed (.15x) _ _ _ _ _ _ _ _ _ _ _ _ _ _ _ _ _
 72
   65
 73
    2
 40
2.8575
 49
1.905
 74
    0
 49
-0.9525
 74
    0
  0
LTYPE
  5
38
330
5
100
AcDbSymbolTableRecord
100
AcDbLinetypeTableRecord
  2
DASHED2
 70
    0
  3
Dashed (.5x) _ _ _ _ _ _ _ _ _ _ _ _ _ _ _ _ _
 72
   65
 73
    2
 40
9.524999999999999
 49
6.35
 74
    0
 49
-3.175
 74
    0
  0
LTYPE
  5
39
330
5
100
AcDbSymbolTableRecord
100
AcDbLinetypeTableRecord
  2
DASHEDX2
 70
    0
  3
Dashed (2x) ____  ____  ____  ____  ____  ___
 72
   65
 73
    2
 40
38.09999999999999
 49
25.4
 74
    0
 49
-12.7
 74
    0
  0
LTYPE
  5
3A
330
5
100
AcDbSymbolTableRecord
100
AcDbLinetypeTableRecord
  2
DASHDOT
 70
    0
  3
Dash dot __ . __ . __ . __ . __ . __ . __ . __
 72
   65
 73
    4
 40
25.4
 49
12.7
 74
    0
 49
-6.35
 74
    0
 49
0
 74
    0
 49
-6.35
 74
    0
  0
LTYPE
  5
3B
330
5
100
AcDbSymbolTableRecord
100
AcDbLinetypeTableRecord
  2
DASHDOTTINY
 70
    0
  3
Dash dot (.15x) _._._._._._._._._._._._._._._.
 72
   65
 73
    4
 40
3.81
 49
1.905
 74
    0
 49
-0.9525
 74
    0
 49
0
 74
    0
 49
-0.9525
 74
    0
  0
LTYPE
  5
3C
330
5
100
AcDbSymbolTableRecord
100
AcDbLinetypeTableRecord
  2
DASHDOT2
 70
    0
  3
Dash dot (.5x) _._._._._._._._._._._._._._._.
 72
   65
 73
    4
 40
12.7
 49
6.35
 74
    0
 49
-3.175
 74
    0
 49
0
 74
    0
 49
-3.175
 74
    0
  0
LTYPE
  5
3D
330
5
100
AcDbSymbolTableRecord
100
AcDbLinetypeTableRecord
  2
DASHDOTX2
 70
    0
  3
Dash dot (2x) ____  .  ____  .  ____  .  ___
 72
   65
 73
    4
 40
50.8
 49
25.4
 74
    0
 49
-12.7
 74
    0
 49
0
 74
    0
 49
-12.7
 74
    0
  0
LTYPE
  5
3E
330
5
100
AcDbSymbolTableRecord
100
AcDbLinetypeTableRecord
  2
DIVIDE
 70
    0
  3
Divide ____ . . ____ . . ____ . . ____ . . ____
 72
   65
 73
    6
 40
31.75
 49
12.7
 74
    0
 49
-6.35
 74
    0
 49
0
 74
    0
 49
-6.35
 74
    0
 49
0
 74
    0
 49
-6.35
 74
    0
  0
LTYPE
  5
3F
330
5
100
AcDbSymbolTableRecord
100
AcDbLinetypeTableRecord
  2
DIVIDETINY
 70
    0
  3
Divide (.15x) __..__..__..__..__..__..__..__.._
 72
   65
 73
    6
 40
4.7625
 49
1.905
 74
    0
 49
-0.9525
 74
    0
 49
0
 74
    0
 49
-0.9525
 74
    0
 49
0
 74
    0
 49
-0.9525
 74
    0
  0
LTYPE
  5
40
330
5
100
AcDbSymbolTableRecord
100
AcDbLinetypeTableRecord
  2
DIVIDE2
 70
    0
  3
Divide (.5x) __..__..__..__..__..__..__..__.._
 72
   65
 73
    6
 40
15.875
 49
6.35
 74
    0
 49
-3.175
 74
    0
 49
0
 74
    0
 49
-3.175
 74
    0
 49
0
 74
    0
 49
-3.175
 74
    0
  0
LTYPE
  5
41
330
5
100
AcDbSymbolTableRecord
100
AcDbLinetypeTableRecord
  2
DIVIDEX2
 70
    0
  3
Divide (2x) ________  .  .  ________  .  .  _
 72
   65
 73
    6
 40
63.5
 49
25.4
 74
    0
 49
-12.7
 74
    0
 49
0
 74
    0
 49
-12.7
 74
    0
 49
0
 74
    0
 49
-12.7
 74
    0
  0
LTYPE
  5
42
330
5
100
AcDbSymbolTableRecord
100
AcDbLinetypeTableRecord
  2
BORDER
 70
    0
  3
Border __ __ . __ __ . __ __ . __ __ . __ __ .
 72
   65
 73
    6
 40
44.45
 49
12.7
 74
    0
 49
-6.35
 74
    0
 49
12.7
 74
    0
 49
-6.35
 74
    0
 49
0
 74
    0
 49
-6.35
 74
    0
  0
LTYPE
  5
43
330
5
100
AcDbSymbolTableRecord
100
AcDbLinetypeTableRecord
  2
BORDERTINY
 70
    0
  3
Border (.15x) __.__.__.__.__.__.__.__.__.__.__.
 72
   65
 73
    6
 40
6.6675
 49
1.905
 74
    0
 49
-0.9525
 74
    0
 49
1.905
 74
    0
 49
-0.9525
 74
    0
 49
0
 74
    0
 49
-0.9525
 74
    0
  0
LTYPE
  5
44
330
5
100
AcDbSymbolTableRecord
100
AcDbLinetypeTableRecord
  2
BORDER2
 70
    0
  3
Border (.5x) __.__.__.__.__.__.__.__.__.__.__.
 72
   65
 73
    6
 40
22.225
 49
6.35
 74
    0
 49
-3.175
 74
    0
 49
6.35
 74
    0
 49
-3.175
 74
    0
 49
0
 74
    0
 49
-3.175
 74
    0
  0
LTYPE
  5
45
330
5
100
AcDbSymbolTableRecord
100
AcDbLinetypeTableRecord
  2
BORDERX2
 70
    0
  3
Border (2x) ____  ____  .  ____  ____  .  ___
 72
   65
 73
    6
 40
88.89999999999999
 49
25.4
 74
    0
 49
-12.7
 74
    0
 49
25.4
 74
    0
 49
-12.7
 74
    0
 49
0
 74
    0
 49
-12.7
 74
    0
  0
LTYPE
  5
46
330
5
100
AcDbSymbolTableRecord
100
AcDbLinetypeTableRecord
  2
CENTER
 70
    0
  3
Center ____ _ ____ _ ____ _ ____ _ ____ _ ____
 72
   65
 73
    4
 40
50.8
 49
31.75
 74
    0
 49
-6.35
 74
    0
 49
6.35
 74
    0
 49
-6.35
 74
    0
  0
LTYPE
  5
47
330
5
100
AcDbSymbolTableRecord
100
AcDbLinetypeTableRecord
  2
CENTERTINY
 70
    0
  3
Center (.15x) ___ _ ___ _ ___ _ ___ _ ___ _ ___
 72
   65
 73
    4
 40
7.62
 49
4.7625
 74
    0
 49
-0.9525
 74
    0
 49
0.9525
 74
    0
 49
-0.9525
 74
    0
  0
LTYPE
  5
48
330
5
100
AcDbSymbolTableRecord
100
AcDbLinetypeTableRecord
  2
CENTER2
 70
    0
  3
Center (.5x) ___ _ ___ _ ___ _ ___ _ ___ _ ___
 72
   65
 73
    4
 40
28.575
 49
19.05
 74
    0
 49
-3.175
 74
    0
 49
3.175
 74
    0
 49
-3.175
 74
    0
  0
LTYPE
  5
49
330
5
100
AcDbSymbolTableRecord
100
AcDbLinetypeTableRecord
  2
CENTERX2
 70
    0
  3
Center (2x) ________  __  ________  __  _____
 72
   65
 73
    4
 40
101.6
 49
63.5
 74
    0
 49
-12.7
 74
    0
 49
12.7
 74
    0
 49
-12.7
 74
    0
  0
ENDTAB
  0
TABLE
  2
LAYER
  5
2
330
0
100
AcDbSymbolTable
 70
    1
  0
LAYER
  5
10
330
2
100
AcDbSymbolTableRecord
100
AcDbLayerTableRecord
  2
0
 70
    0
 62
    7
  6
CONTINUOUS
370
    0
390
F
  0
ENDTAB
  0
TABLE
  2
STYLE
  5
3
330
0
100
AcDbSymbolTable
 70
    3
  0
STYLE
  5
4A
330
2
100
AcDbSymbolTableRecord
100
AcDbTextStyleTableRecord
  2
Standard
 70
    0
 40
0
 41
1
 50
0
 71
    0
 42
1
  3
txt
  4

  0
ENDTAB
  0
TABLE
  2
VIEW
  5
6
330
0
100
AcDbSymbolTable
 70
    0
  0
ENDTAB
  0
TABLE
  2
UCS
  5
7
330
0
100
AcDbSymbolTable
 70
    0
  0
ENDTAB
  0
TABLE
  2
APPID
  5
9
330
0
100
AcDbSymbolTable
 70
    1
  0
APPID
  5
12
330
9
100
AcDbSymbolTableRecord
100
AcDbRegAppTableRecord
  2
ACAD
 70
    0
  0
APPID
  5
4B
330
9
100
AcDbSymbolTableRecord
100
AcDbRegAppTableRecord
  2
LibreCad
 70
    0
  0
ENDTAB
  0
TABLE
  2
DIMSTYLE
  5
A
330
0
100
AcDbSymbolTable
 70
    1
100
AcDbDimStyleTable
 71
    1
  0
DIMSTYLE
105
4C
330
A
100
AcDbSymbolTableRecord
100
AcDbDimStyleTableRecord
  2
Standard
 70
    0
 40
2.5
 41
2.5
 42
0.625
 43
0.38
 44
1.25
 45
0
 46
0
 47
0
 48
0
 49
1
140
2.5
141
0.09
142
0
143
25.4
144
1
145
0
146
1
147
0.625
148
0
 71
    0
 72
    0
 73
    0
 74
    1
 75
    0
 76
    0
 77
    0
 78
    8
 79
    0
170
    0
171
    2
172
    0
173
    0
174
    0
175
    0
176
    0
177
    0
178
    0
179
    0
271
    2
272
    4
273
    2
274
    2
275
    0
276
    0
277
    2
278
   44
279
    0
280
    0
281
    0
282
    0
283
    1
284
    0
285
    0
286
    0
288
    0
289
    3
340
STANDARD
341

371
   -2
372
   -2
  0
ENDTAB
  0
TABLE
  2
BLOCK_RECORD
  5
1
330
0
100
AcDbSymbolTable
 70
    2
  0
BLOCK_RECORD
  5
1F
330
1
100
AcDbSymbolTableRecord
100
AcDbBlockTableRecord
  2
*Model_Space
 70
    0
280
    1
281
    0
  0
BLOCK_RECORD
  5
1E
330
1
100
AcDbSymbolTableRecord
100
AcDbBlockTableRecord
  2
*Paper_Space
 70
    0
280
    1
281
    0
  0
ENDTAB
  0
ENDSEC
  0
SECTION
  2
BLOCKS
  0
BLOCK
  5
20
330
1F
100
AcDbEntity
  8
0
100
AcDbBlockBegin
  2
*Model_Space
 70
    0
 10
0
 20
0
 30
0
  3
*Model_Space
  1

  0
ENDBLK
  5
21
330
1F
100
AcDbEntity
  8
0
100
AcDbBlockEnd
  0
BLOCK
  5
1C
330
1B
100
AcDbEntity
  8
0
100
AcDbBlockBegin
  2
*Paper_Space
 70
    0
 10
0
 20
0
 30
0
  3
*Paper_Space
  1

  0
ENDBLK
  5
1D
330
1F
100
AcDbEntity
  8
0
100
AcDbBlockEnd
  0
ENDSEC
  0
SECTION
  2
ENTITIES
  0
LWPOLYLINE
  5
4D
100
AcDbEntity
  8
0
  6
ByLayer
 62
  256
370
   -1
100
AcDbPolyline
 90
  446
 70
    1
 43
0
 10
1.062483521576645
 20
9.588657997009996
 42
-0.009627000000000042
 10
0.9233959765766422
 20
9.447519322009995
 42
-0.01500399999999999
 10
0.7977264865766389
 20
9.331972117010009
 42
-0.01751099999999988
 10
0.6856206265766479
 20
9.241606117009999
 42
-0.03328600000000029
 10
0.588542021576643
 20
9.17843673701001
 10
0.497100521576646
 20
9.127249477010011
 10
0.1507195915766451
 20
9.127249477010011
 10
-0.195661338423355
 20
9.127249477010011
 10
-0.5153389084233522
 20
8.781587047010007
 10
-0.8350164784233558
 20
8.435924602010012
 10
-0.9550164784233569
 20
8.444574352010019
 42
-0.002380000000000064
 10
-1.006701243423355
 20
8.448547267009991
 42
-0.001859000000000222
 10
-1.06280004342336
 20
8.453338207010013
 42
-0.001879000000000325
 10
-1.115009928423359
 20
8.458190407010026
 42
-0.004582999999999974
 10
-1.153428603423357
 20
8.46226230701
 10
-1.231840743423357
 20
8.471300497010006
 10
-1.235928603423358
 20
8.732527612009996
 10
-1.240016478423354
 20
8.993754712010016
 10
-1.376528268423356
 20
8.903804197010016
 42
0.02500400000000003
 10
-1.487655858423355
 20
8.822332702010007
 42
0.03078099999999983
 10
-1.582211598423353
 20
8.735270662009999
 42
0.02813900000000012
 10
-1.671677943423353
 20
8.630936182010011
 42
0.01624300000000003
 10
-1.767818973423348
 20
8.496291292010007
 10
-1.863374238423356
 20
8.352833122010011
 10
-1.859195358423353
 20
8.136291292010007
 10
-1.855016478423358
 20
7.919749477010008
 10
-1.827085218423351
 20
8.002249477009997
 42
-0.005090000000000036
 10
-1.809969048423344
 20
8.051160142010019
 42
-0.0007449999999999672
 10
-1.774087248423356
 20
8.149980682010003
 42
-0.0008419999999999903
 10
-1.73130214842336
 20
8.266657942010019
 42
-0.0007219999999999979
 10
-1.685889228423367
 20
8.389313137010006
 10
-1.572624498423352
 20
8.693876797009999
 10
-1.413820488423355
 20
8.529145177010008
 42
0.009034999999999734
 10
-1.347071448423356
 20
8.462362717009995
 42
0.01117000000000005
 10
-1.282425408423355
 20
8.40271080701001
 42
0.01089699999999996
 10
-1.226265873423353
 20
8.355301642010003
 42
0.05554400000000052
 10
-1.19186404842336
 20
8.333331517009995
 42
0.1219770000000008
 10
-1.054445208423359
 20
8.303378392010014
 42
0.0942749999999995
 10
-0.904207908423355
 20
8.336365447009996
 42
0.06394599999999984
 10
-0.7296727234233589
 20
8.439062707009997
 42
0.02458199999999997
 10
-0.515691513423358
 20
8.622510877009997
 42
-0.01105600000000005
 10
-0.3264323434233483
 20
8.793857722009998
 42
-0.02216200000000002
 10
-0.1683081184233535
 20
8.918962102010005
 42
-0.02804199999999989
 10
-0.03451485342335009
 20
9.004521457010005
 42
-0.06145399999999994
 10
0.07773880157664337
 20
9.050680477010012
 10
0.1699835215766421
 20
9.075949207010005
 10
0.3724835215766191
 20
8.987931307010022
 42
0.0004560000000000069
 10
0.4524766615765987
 20
8.953248412010005
 42
0.000605000000000038
 10
0.5252984965766405
 20
8.921858182009984
 42
0.0004269999999999835
 10
0.5864205865766522
 20
8.89566069701001
 42
0.006094999999999915
 10
0.6083430115766468
 20
8.886601177009991
 42
0.1352630000000004
 10
0.629278466576645
 20
8.884272037010019
 42
0.1475359999999995
 10
0.6476576965766443
 20
8.893174147010003
 42
0.05686999999999851
 10
0.6698293915766367
 20
8.918804707010011
 42
0.006754999999999883
 10
0.7114614265766441
 20
8.981519212009999
 42
-0.01166499999999996
 10
0.7800660565766457
 20
9.082694947010014
 42
-0.01002099999999997
 10
0.8567875615766454
 20
9.185906002010004
 42
-0.007955000000000005
 10
0.9528869365766557
 20
9.305922322009993
 42
-0.003549999999999998
 10
1.083027266576652
 20
9.460999477010006
 10
1.233081146576648
 20
9.637249477010002
 10
1.367490806576648
 20
9.637249477010002
 10
1.501900481576643
 20
9.637249477010002
 10
1.637770061576647
 20
9.520999477009997
 42
0.01989499999999995
 10
1.832339876576641
 20
9.367498672010003
 42
0.03581599999999988
 10
2.004812366576642
 20
9.260190922009999
 42
0.0321919999999996
 10
2.202961841576638
 20
9.171559972010018
 42
0.01300199999999997
 10
2.483285201576638
 20
9.075468247010001
 10
2.726586866576641
 20
8.999076217010021
 10
2.85914695157664
 20
8.819412847010025
 42
0.005363000000000197
 10
2.921174066576642
 20
8.737205692010001
 42
0.002944999999999909
 10
2.998780001576637
 20
8.637829297010009
 42
0.002935000000000033
 10
3.078738911576635
 20
8.537885032010019
 42
0.004687999999999908
 10
3.148345286576649
 20
8.453549332009985
 42
-0.001103000000000022
 10
3.351955256576653
 20
8.210426107009981
 42
-0.006861999999999902
 10
3.454328756576648
 20
8.084152657010025
 42
-0.01152699999999998
 10
3.528913466576651
 20
7.984907362010006
 42
-0.007374999999999875
 10
3.611147126576641
 20
7.866410812009995
 42
-0.01195899999999998
 10
3.664359581576643
 20
7.783026082010009
 42
-0.005749999999999989
 10
3.728774366576646
 20
7.673736742010007
 42
-0.005696999999999963
 10
3.79338928157665
 20
7.55813705201001
 42
-0.008116000000000049
 10
3.847924391576644
 20
7.453910812010015
 10
3.968158811576645
 20
7.214749477009995
 10
3.960994946576644
 20
6.622249477010016
 10
3.953831066576648
 20
6.029749477010007
 10
3.901362971576644
 20
5.902249477009992
 42
-0.008517999999999673
 10
3.828162071576646
 20
5.732637322010006
 42
-0.03582099999999994
 10
3.775392221576645
 20
5.63513528201001
 42
-0.06915400000000112
 10
3.732481361576646
 20
5.58478272701
 42
-0.2803520000000133
 10
3.694497251576649
 20
5.57786046701001
 42
-0.1774469999999838
 10
3.670062761576651
 20
5.599189582009999
 42
-0.03378400000000011
 10
3.644810471576644
 20
5.653621597010003
 42
-0.02106999999999979
 10
3.614438621576646
 20
5.743850122010024
 42
-0.004711999999999892
 10
3.570614636576641
 20
5.900285317010002
 10
3.514983521576644
 20
6.10632230201
 10
3.237483521576735
 20
6.359161237009971
 42
0.0001540000000000493
 10
3.130849616576697
 20
6.456258802010055
 42
0.0002520000000000772
 10
3.040532246576504
 20
6.538365067010318
 42
1.600000000004907e-005
 10
2.95921520657614
 20
6.6122094970105
 42
0.03881600000000957
 10
2.956691966576646
 20
6.614166382010013
 42
-0.4507930000005047
 10
2.956392866576721
 20
6.616262752010059
 42
-0.0001279999999999602
 10
3.020898476576624
 20
6.691986862010026
 42
-0.001775000000000044
 10
3.093277331576651
 20
6.776301187010009
 42
-0.001061999999999997
 10
3.179889491576645
 20
6.87604526201001
 10
3.406378586576644
 20
7.135757932010002
 10
3.374250581576645
 20
7.257753712010022
 42
0.02613200000000002
 10
3.334428971576648
 20
7.382172337010012
 42
0.02823299999999993
 10
3.282698621576639
 20
7.498491472010008
 42
0.03010099999999999
 10
3.222369521576637
 20
7.600264162010019
 42
0.04428599999999965
 10
3.156738881576645
 20
7.680796762010001
 42
0.01918799999999999
 10
3.111965516576651
 20
7.723361542009997
 42
0.0442130000000004
 10
3.074553071576644
 20
7.750833472010013
 42
0.04409199999999978
 10
3.032830256576641
 20
7.771343182009985
 42
0.01898899999999996
 10
2.974146206576645
 20
7.791495127010002
 10
2.868308891576643
 20
7.823402107010011
 10
2.462780246576612
 20
7.695325792010003
 42
-0.001007000000000054
 10
2.306230961576595
 20
7.646230147009998
 42
-0.00159699999999996
 10
2.171907491576547
 20
7.604871892009967
 42
-0.0003399999999998195
 10
2.053702046576611
 20
7.56897693700999
 42
-0.07366700000000656
 10
2.042040926576642
 20
7.567249477010007
 42
-0.2083929999999719
 10
2.033401016576644
 20
7.571013952010007
 42
-0.01022500000000001
 10
2.012187206576643
 20
7.594788547009999
 42
-0.0151389999999999
 10
1.987803356576649
 20
7.625077057010012
 42
-0.01021899999999973
 10
1.961770931576654
 20
7.660999477010003
 42
0.01250200000000008
 10
1.876866881576655
 20
7.777040737010012
 42
0.01067400000000002
 10
1.781790911576651
 20
7.89509105201001
 42
0.009864999999999924
 10
1.674243896576651
 20
8.017937062010009
 42
0.007488999999999853
 10
1.551716741576654
 20
8.148463162009996
 10
1.388449961576645
 20
8.317249477010009
 10
1.239567536576646
 20
8.317249477010009
 10
1.090685126576641
 20
8.317249477010009
 10
0.8928343165766448
 20
8.175991612010002
 42
-0.01814199999999981
 10
0.6279965365766438
 20
8.001053362010012
 42
-0.1194899999999997
 10
0.4777806265766465
 20
7.95299754700999
 42
-0.1328119999999984
 10
0.3297351115766451
 20
7.981824037010006
 42
-0.02439999999999992
 10
0.08381465657663978
 20
8.117828242009999
 10
-0.04856221842335406
 20
8.199713227010001
 10
-0.1171971334233526
 20
8.176326952009999
 42
0.07154399999999972
 10
-0.2014410634233511
 20
8.133402352010007
 42
0.024268
 10
-0.3101236384233577
 20
8.048597797010013
 42
0.01832000000000003
 10
-0.4467720784233595
 20
7.921863952010001
 42
0.007480000000000069
 10
-0.6233991034234094
 20
7.740231097009918
 42
-0.001271999999999697
 10
-0.9095953534233349
 20
7.438516882009981
 42
-0.02932299999999998
 10
-0.9963967384233496
 20
7.357553152009991
 42
-0.08127299999999994
 10
-1.067683653423358
 20
7.315804282010023
 42
-0.03163600000000016
 10
-1.177010973423352
 20
7.281462682010002
 10
-1.324005468423352
 20
7.245318292009998
 10
-1.406097543423353
 20
7.288298992010009
 42
-0.0523999999999997
 10
-1.483451838423353
 20
7.339759537010011
 42
-0.03310100000000016
 10
-1.562257938423355
 20
7.41434765201001
 42
-0.0301359999999997
 10
-1.638556788423355
 20
7.507463512010007
 42
-0.02496499999999987
 10
-1.708419528423358
 20
7.614966622010002
 42
0.00600199999999994
 10
-1.735267338423355
 20
7.659922087010019
 42
0.009444000000000017
 10
-1.759504593423354
 20
7.697797642010008
 42
0.004036000000000051
 10
-1.780810518423355
 20
7.72919474201
 42
0.2464419999998433
 10
-1.786631808423356
 20
7.732249477009998
 42
0.3517310000000515
 10
-1.806369183423357
 20
7.71640473700999
 42
0.001149000000000005
 10
-1.878120933423341
 20
7.388827507009996
 42
0.004353000000000033
 10
-1.940596923423358
 20
7.087785832009999
 42
0.04901999999999993
 10
-1.952516478423356
 20
6.966498727009999
 42
-0.1540849999999997
 10
-1.961434548423358
 20
6.938247067009996
 42
-0.07403500000000003
 10
-1.98786934842336
 20
6.910397032010012
 42
-0.02885399999999983
 10
-2.043150168423357
 20
6.872090902009999
 42
-0.003261000000000147
 10
-2.173766478423366
 20
6.793483612009999
 42
0.006885999999999952
 10
-2.371202388423347
 20
6.672704842010001
 42
0.004903000000000002
 10
-2.589162768423355
 20
6.532203442010005
 42
0.004195999999999956
 10
-2.837950368423353
 20
6.365344957010013
 42
0.002535000000000026
 10
-3.130016478423357
 20
6.16370816201001
 10
-3.415016478423356
 20
5.964808777009999
 10
-3.95707174842336
 20
5.397279127010023
 42
0.001250000000000031
 10
-4.305614808423393
 20
5.030524042009983
 42
0.01166999999999997
 10
-4.451758308423351
 20
4.868562277010018
 42
0.02144399999999993
 10
-4.55491482342335
 20
4.737787912010005
 42
0.009931999999999934
 10
-4.678065108423349
 20
4.559749477010003
 42
0.006767000000000069
 10
-4.900867188423356
 20
4.213475917009995
 42
0.009858000000000016
 10
-5.087018568423363
 20
3.901863862010013
 42
0.009878000000000168
 10
-5.260463988423361
 20
3.583634377010001
 42
0.006835000000000012
 10
-5.444550228423367
 20
3.217249477009979
 42
-0.0003809999999999347
 10
-5.510426403423317
 20
3.081807037009984
 42
-0.0006230000000001737
 10
-5.566502883423368
 20
2.967098992009852
 42
-5.400000000008397e-005
 10
-5.61691447842342
 20
2.86433175700975
 42
-0.07206200000000162
 10
-5.619417513423353
 20
2.860673347009999
 42
-0.4215850000001112
 10
-5.622542028423496
 20
2.860582912010116
 42
-0.0001989999999999168
 10
-5.703119448423474
 20
2.938624537010098
 42
-0.002222000000000212
 10
-5.793019413423368
 20
3.026542927010031
 42
-0.001330999999999753
 10
-5.89909260342333
 20
3.131762992010007
 42
0.0014430000000001
 10
-6.019645893423355
 20
3.251292907010011
 42
0.001061999999999997
 10
-6.153879978423351
 20
3.383059987009997
 42
0.001073
 10
-6.281378088423352
 20
3.507150052010021
 42
0.002395999999999924
 10
-6.378986328423354
 20
3.600839122010001
 10
-6.582956178423354
 20
3.794749477010008
 10
-6.617986578423356
 20
4.002852217010009
 10
-6.653016963423354
 20
4.210954957009996
 10
-6.583154193423348
 20
4.422852217009993
 42
0.008588000000000226
 10
-6.52624453842335
 20
4.605980017010012
 42
0.02039000000000018
 10
-6.491873433423359
 20
4.744419772009998
 42
0.02560600000000007
 10
-6.473621118423353
 20
4.86407120201001
 42
0.02505000000000021
 10
-6.467516478423356
 20
4.985846152009997
 42
0.04751799999999985
 10
-6.485092128423354
 20
5.170365457010007
 42
0.09999700000000061
 10
-6.539482968423354
 20
5.302964467010008
 42
0.09925000000000037
 10
-6.64139775342335
 20
5.404666462010001
 42
0.04632500000000021
 10
-6.806384478423348
 20
5.493500302010006
 42
0.01250499999999995
 10
-6.856761093423358
 20
5.51340690701001
 42
0.03103000000000013
 10
-6.894761433423355
 20
5.524716607009998
 42
0.04303599999999939
 10
-6.924301728423352
 20
5.52891600701
 42
0.08746300000000516
 10
-6.947516478423357
 20
5.526133567010005
 42
0.004014999999999994
 10
-7.118062638423356
 20
5.473041037010009
 42
0.01833999999999995
 10
-7.215698463423357
 20
5.437787452009998
 42
0.02861199999999994
 10
-7.288086798423357
 20
5.403674167010008
 42
0.022982
 10
-7.361788278423354
 20
5.359138837010009
 42
0.03254500000000007
 10
-7.468858248423354
 20
5.276968582010002
 42
0.03089999999999987
 10
-7.566349683423353
 20
5.180250127009999
 42
0.03127900000000006
 10
-7.650007308423358
 20
5.073577267010008
 42
0.03563099999999982
 10
-7.715759478423356
 20
4.961687242010001
 42
0.01177800000000001
 10
-7.750010643423355
 20
4.888267972009998
 42
0.03756599999999986
 10
-7.767927858423349
 20
4.837268422010006
 42
0.04032199999999984
 10
-7.777351968423357
 20
4.786104682010006
 42
0.01519300000000003
 10
-7.782532623423359
 20
4.713434542009999
 10
-7.787580063423357
 20
4.589749477009995
 10
-7.745479608423351
 20
4.717249477010007
 42
-0.02067600000000004
 10
-7.695626388423356
 20
4.849586242009998
 42
-0.03200600000000001
 10
-7.640814918423358
 20
4.95867390701001
 42
-0.034231
 10
-7.575583953423362
 20
5.05442507201
 42
-0.02897599999999996
 10
-7.49439916842335
 20
5.146170172010009
 42
-0.0499049999999999
 10
-7.346578578423357
 20
5.26785543701
 42
-0.06063300000000016
 10
-7.186552458423352
 20
5.348716897010016
 42
-0.06640299999999942
 10
-7.024994523423356
 20
5.383853272009997
 42
-0.08327499999999922
 10
-6.872465553423353
 20
5.370914107010002
 42
-0.03735599999999997
 10
-6.801503523423357
 20
5.346966322010001
 42
-0.02125199999999997
 10
-6.719609853423347
 20
5.308147192009999
 42
-0.01306899999999993
 10
-6.644879958423357
 20
5.266220512010007
 42
-0.2650449999999925
 10
-6.632545293423356
 20
5.244435787010005
 42
-0.03321699999999998
 10
-6.636465498423348
 20
5.18802711700997
 42
-0.0008190000000000613
 10
-6.672011238423345
 20
4.931015152009947
 42
-0.002012000000000063
 10
-6.708415038423356
 20
4.67834580700997
 42
-0.004720000000000001
 10
-6.738152928423358
 20
4.489947787009988
 42
0.03474800000000006
 10
-6.779825688423355
 20
4.059565057010012
 42
0.1093019999999998
 10
-6.72514675842335
 20
3.776291422010013
 42
0.09707599999999936
 10
-6.551660313423357
 20
3.523772692010009
 42
0.02409100000000036
 10
-6.175016478423348
 20
3.188659822009996
 10
-5.965016478423355
 20
3.019208392010022
 10
-5.813803008423355
 20
2.678012377010006
 10
-5.662589523423353
 20
2.336816362010005
 10
-5.693803008423354
 20
1.976711242009998
 10
-5.725016478423351
 20
1.61660613701001
 10
-5.822516478423356
 20
1.461865687010008
 42
0.001223999999999882
 10
-5.860242243423351
 20
1.401665647010005
 42
0.001836000000000011
 10
-5.892844608423355
 20
1.348926607010011
 42
0.0007359999999999735
 10
-5.920574853423358
 20
1.303548487010005
 42
0.04123199999999973
 10
-5.925016473423351
 20
1.294687357010005
 42
0.4306050000000338
 10
-5.922793368423359
 20
1.289852587010005
 42
0.03496500000000139
 10
-5.907746478423358
 20
1.285903102010005
 42
0.03013599999999948
 10
-5.886011358423358
 20
1.283138167009998
 42
0.01657100000000012
 10
-5.859203688423358
 20
1.282249477010005
 10
-5.788390893423358
 20
1.282249477010005
 10
-5.798949918423353
 20
1.152115237010001
 42
-0.009828000000000238
 10
-5.810825643423353
 20
1.034485432010008
 42
-0.01522400000000002
 10
-5.826151053423359
 20
0.9335738470099938
 42
-0.01336199999999978
 10
-5.849089998423352
 20
0.8248236820099988
 42
-0.005658000000000051
 10
-5.885391603423358
 20
0.6801983470099984
 10
-5.931310578423351
 20
0.5056472170100079
 10
-6.195681798423352
 20
0.2415820270099971
 10
-6.460053033423356
 20
-0.02248314799000184
 10
-6.793696968423351
 20
-0.09525635298999191
 10
-7.127340918423357
 20
-0.1680295579900033
 10
-7.326178698423353
 20
-0.1343900629899926
 42
-0.01033699999999989
 10
-7.491242703423359
 20
-0.1029416779900036
 42
-0.02332099999999967
 10
-7.614389043423352
 20
-0.07076523798998924
 42
-0.03034600000000004
 10
-7.710362733423355
 20
-0.03432452298998906
 42
-0.04369699999999987
 10
-7.789574688423356
 20
0.01007618200999216
 42
-0.007442999999999873
 10
-7.817509353423358
 20
0.0297300670099937
 42
-0.01140400000000004
 10
-7.841057388423358
 20
0.04766147201000681
 42
-0.006039000000000246
 10
-7.86014827842335
 20
0.06328017701001089
 42
-0.2208959999999286
 10
-7.862487483423352
 20
0.068272102009999
 42
-0.3977249999999645
 10
-7.859060658423397
 20
0.07192346201000532
 42
-0.0001949999999999917
 10
-7.685156403423358
 20
0.08230623701001605
 42
-0.002199999999999948
 10
-7.490271123423367
 20
0.09300500200999551
 42
-0.001320000000000003
 10
-7.258766478423357
 20
0.1040799520100038
 10
-6.655016478423358
 20
0.1313651770099966
 10
-6.518961393423354
 20
0.2680573270100046
 42
0.007462999999999982
 10
-6.447265383423359
 20
0.3422721670100027
 42
0.02770999999999981
 10
-6.405493713423354
 20
0.3920866870100002
 42
0.0429239999999999
 10
-6.379831668423355
 20
0.4333288720100024
 42
0.05048499999999969
 10
-6.363201933423355
 20
0.4762139470099954
 42
0.05438499999999971
 10
-6.351437388423354
 20
0.5489403370100092
 42
0.05363599999999995
 10
-6.355539993423354
 20
0.6228430720099993
 42
0.04137000000000007
 10
-6.377163348423355
 20
0.7092114070099952
 42
0.01694500000000001
 10
-6.41999364342335
 20
0.822347287010011
 10
-6.477807033423355
 20
0.9607109320099951
 10
-6.426690573423354
 20
1.03523021201
 42
0.014999
 10
-6.364707648423358
 20
1.13166924701001
 42
0.03470099999999995
 10
-6.325598928423352
 20
1.208305327009995
 42
0.04494999999999977
 10
-6.303825183423352
 20
1.27566284201
 42
0.05282800000000012
 10
-6.295981548423357
 20
1.342249477010022
 42
0.06071499999999921
 10
-6.304484178423357
 20
1.419529102009996
 42
0.05866100000000007
 10
-6.331310388423351
 20
1.49346683201
 42
0.04001199999999981
 10
-6.383871438423355
 20
1.580123047010005
 42
0.01214999999999996
 10
-6.476858463423353
 20
1.702568992010014
 42
-0.003131000000000048
 10
-6.519261603423359
 20
1.756363087010003
 42
-0.004915000000000098
 10
-6.554958003423361
 20
1.803179017009995
 42
-0.001503000000000212
 10
-6.58529758842336
 20
1.844046832010016
 42
-0.1652029999999914
 10
-6.587337138423354
 20
1.850454562010007
 42
-0.1513349999999989
 10
-6.585187668423355
 20
1.856947657010011
 42
-0.001131000000000075
 10
-6.552013158423351
 20
1.903187662009999
 42
-0.004093999999999948
 10
-6.51327931842335
 20
1.956002347009997
 42
-0.002598000000000004
 10
-6.467337138423353
 20
2.016919057010021
 10
-6.347516478423357
 20
2.174088637010009
 10
-6.347516478423357
 20
2.400011902010007
 10
-6.347516478423357
 20
2.625935182010011
 10
-6.591266478423357
 20
2.866038307010015
 10
-6.835016478423356
 20
3.106141432010006
 10
-7.142516478423358
 20
3.215370727010011
 10
-7.45001647842335
 20
3.324600007010005
 10
-7.506398628423353
 20
3.418415767010011
 42
-0.02842299999999999
 10
-7.557576273423356
 20
3.515691907010002
 42
-0.01704299999999997
 10
-7.607638083423353
 20
3.636312637010008
 42
-0.0133699999999999
 10
-7.660582203423356
 20
3.78959214701002
 42
-0.006333000000000017
 10
-7.72100473842336
 20
3.989749477010009
 42
0.002736000000000024
 10
-7.74593178342335
 20
4.074522697010011
 42
0.005281999999999903
 10
-7.766968818423349
 20
4.142046352010007
 42
0.003748000000000048
 10
-7.783745433423347
 20
4.192658062010012
 42
0.8365340000034112
 10
-7.786448403423357
 20
4.192249477010002
 42
0.0433429999999999
 10
-7.784435733423393
 20
4.158239227010132
 42
0.0005509999999999462
 10
-7.7528610334234
 20
3.944764042010166
 42
0.001839000000000054
 10
-7.719739323423362
 20
3.727995712010015
 42
0.002625000000000299
 10
-7.688618298423354
 20
3.535827082010009
 42
-0.006015000000000013
 10
-7.67937658842335
 20
3.476201062010006
 42
-0.009347000000000001
 10
-7.672989723423359
 20
3.424557067010007
 42
-0.004179999999999984
 10
-7.668784068423353
 20
3.380879227010006
 42
-0.22179100000003
 10
-7.671584073423353
 20
3.373181887010002
 42
-0.1424059999999856
 10
-7.692428073423352
 20
3.361727317010029
 42
-0.00101000000000013
 10
-7.890463143423386
 20
3.317950327009996
 42
-0.004378999999999985
 10
-8.086017708423363
 20
3.276927352010004
 42
-0.007161999999999985
 10
-8.252516478423358
 20
3.245993272010012
 42
0.02338600000000004
 10
-8.381728383423361
 20
3.217622692010015
 42
0.0550510000000005
 10
-8.473541913423356
 20
3.181706032010014
 42
0.04461700000000011
 10
-8.566181583423361
 20
3.122057947010004
 42
0.01117399999999995
 10
-8.70572442342335
 20
3.008386882010001
 10
-8.821432383423351
 20
2.90974947701001
 10
-8.821974423423352
 20
2.688285292010001
 10
-8.822516478423353
 20
2.466821092010008
 10
-8.726554623423363
 20
2.275319017010005
 10
-8.630592783423353
 20
2.08381694201001
 10
-8.668638678423353
 20
1.99428321701
 42
0.01889100000000001
 10
-8.709215418423353
 20
1.887788047010006
 42
0.03183499999999991
 10
-8.734025133423364
 20
1.795496977010011
 42
0.02808500000000004
 10
-8.74874764842335
 20
1.69310589701
 42
0.01135600000000013
 10
-8.757766443423352
 20
1.552249477010001
 10
-8.766120108423353
 20
1.34974947701
 10
-8.63306829342336
 20
1.230869587010005
 42
-0.000410999999999959
 10
-8.58087288342335
 20
1.184156452010019
 42
-0.0005699999999999937
 10
-8.534149773423337
 20
1.142175397010003
 42
-0.0003519999999999387
 10
-8.494890393423345
 20
1.106769547010012
 42
-0.007157000000000097
 10
-8.483163093423357
 20
1.095869587010018
 42
-0.2056689999999804
 10
-8.475700698423356
 20
1.078314997010011
 42
-0.01199499999999978
 10
-8.477349078423357
 20
1.018855447009998
 42
-0.01200600000000032
 10
-8.484027993423357
 20
0.9308122570099968
 42
-0.003176999999999908
 10
-8.498963688423355
 20
0.7905430570100052
 10
-8.531617668423353
 20
0.5013366520100107
 10
-8.388317073423352
 20
0.2856769120100111
 10
-8.245016478423352
 20
0.07001715700999966
 10
-8.102516478423352
 20
-0.004935667989989012
 42
0.04408799999999972
 10
-7.82818267842336
 20
-0.1196629429899803
 42
0.020011
 10
-7.452579708423364
 20
-0.2227915279900028
 42
0.01729900000000012
 10
-6.995208168423353
 20
-0.3123448279899943
 42
0.01144100000000005
 10
-6.464706813423351
 20
-0.3848754229899924
 10
-6.173225298423357
 20
-0.4179530929899897
 10
-6.155945013423358
 20
-0.6966018079899889
 42
0.01765400000000008
 10
-6.122384403423354
 20
-1.040645377989983
 42
0.0143959999999997
 10
-6.062938998423356
 20
-1.405904317989985
 42
0.01309899999999981
 10
-5.976113448423362
 20
-1.800998257989972
 42
0.009556000000000127
 10
-5.859834873423353
 20
-2.235250522989989
 42
0.008105999999999862
 10
-5.730399093423353
 20
-2.658240382989988
 42
0.01153100000000004
 10
-5.600704488423347
 20
-3.029328637989992
 42
0.01116099999999967
 10
-5.45074300842337
 20
-3.403036267989982
 42
0.006933000000000026
 10
-5.258997078423359
 20
-3.834963577990001
 42
0.003779999999999979
 10
-5.145928338423349
 20
-4.075622557990001
 42
0.0200229999999999
 10
-5.077812783423358
 20
-4.204309057990002
 42
0.02051900000000012
 10
-5.00029693842336
 20
-4.325806552990002
 42
0.00409799999999982
 10
-4.851411813423359
 20
-4.535629297989995
 42
0.006071999999999952
 10
-4.564809768423349
 20
-4.922611672989995
 42
0.01103799999999995
 10
-4.319912793423366
 20
-5.230659847989977
 42
0.01238600000000011
 10
-4.082443323423355
 20
-5.50221857298999
 42
0.01072799999999982
 10
-3.820408698423357
 20
-5.775301552989989
 42
0.02880699999999987
 10
-3.171356208423362
 20
-6.352638652989978
 42
0.02980500000000008
 10
-2.467313163423355
 20
-6.844493632989995
 42
0.02982200000000008
 10
-1.710167058423359
 20
-7.248906802989993
 42
0.0289110000000002
 10
-0.9025164784233592
 20
-7.565089807989983
 42
0.009139000000000126
 10
-0.5856650134233623
 20
-7.662084382989987
 42
0.01208300000000012
 10
-0.293579988423367
 20
-7.738104832989999
 42
0.01054400000000017
 10
0.03102316157662255
 20
-7.807076227989981
 42
0.004936000000000084
 10
0.4538167165766371
 20
-7.883315287989987
 10
0.8876499115766472
 20
-7.957130542990001
 10
1.676359016576645
 20
-7.920582892990005
 10
2.465068136576646
 20
-7.884035257989993
 10
2.697525821576634
 20
-7.830449152989999
 42
0.004030999999999984
 10
2.976047981576625
 20
-7.76387505798999
 42
0.00603500000000002
 10
3.218095481576636
 20
-7.700842372989989
 42
0.006664000000000106
 10
3.438666296576649
 20
-7.637379517989991
 42
0.007202999999999859
 10
3.651792746576641
 20
-7.569605542990005
 42
0.03907299999999993
 10
4.76087083157664
 20
-7.100173777990008
 42
0.03971199999999998
 10
5.777057231576643
 20
-6.46606203799
 42
0.039742
 10
6.679537976576645
 20
-5.679759142989997
 42
0.03925500000000004
 10
7.450314971576643
 20
-4.757519317990004
 42
0.02587999999999992
 10
7.859999471576638
 20
-4.112625322989996
 42
0.02409399999999995
 10
8.211606716576645
 20
-3.413571397990011
 42
0.02382099999999972
 10
8.498019011576641
 20
-2.675601007990017
 42
0.02387600000000002
 10
8.712687521576633
 20
-1.914289282990011
 42
0.005785999999999995
 10
8.734622531576646
 20
-1.814093557990004
 42
0.001936000000000151
 10
8.764420316576645
 20
-1.667154502990011
 42
0.001926000000000038
 10
8.796151406576641
 20
-1.504229872990031
 42
0.00220000000000017
 10
8.82522262157665
 20
-1.34810745798999
 10
8.892483521576647
 20
-0.977850157989991
 10
8.892483521576647
 20
-0.09195137298998901
 10
8.892483521576647
 20
0.7939473970100011
 10
8.816785556576651
 20
1.184348437010002
 42
0.01233800000000001
 10
8.670304376576654
 20
1.851294487010003
 42
0.01882199999999995
 10
8.507391581576648
 20
2.421030982010008
 42
0.01991000000000003
 10
8.309772821576651
 20
2.952545167010001
 42
0.01645099999999997
 10
8.058545456576645
 20
3.502249477010011
 42
0.03583500000000001
 10
7.480495241576643
 20
4.481584792010012
 42
0.03745000000000003
 10
6.776146361576642
 20
5.353086697010021
 42
0.03788700000000002
 10
5.958040841576651
 20
6.100797817010016
 42
0.03857999999999997
 10
5.041206281576654
 20
6.711501877010017
 42
0.004707000000000096
 10
4.955098601576639
 20
6.758662807010015
 42
0.001442999999999989
 10
4.824173621576646
 20
6.828290317010001
 42
0.001444000000000039
 10
4.677162611576655
 20
6.905386912010002
 42
0.001581000000000097
 10
4.534074686576643
 20
6.979325857009997
 10
4.191943721576649
 20
7.154749477010007
 10
4.157836826576647
 20
7.285092937010006
 42
0.05988999999999996
 10
4.043915771576647
 20
7.574025817010011
 42
0.03030999999999998
 10
3.837205721576653
 20
7.906827292010007
 42
0.02986
 10
3.582158456576647
 20
8.22474405701
 42
0.04278399999999995
 10
3.317787086576649
 20
8.470769932010001
 10
3.159338816576643
 20
8.594749477010005
 10
3.068942786576645
 20
8.774749477010012
 42
0.00653499999999997
 10
3.000941246576651
 20
8.90585594201
 42
0.01179900000000003
 10
2.941338926576648
 20
9.01113666701
 42
0.01356100000000003
 10
2.883221801576648
 20
9.102639412009998
 42
0.0134989999999998
 10
2.820143951576644
 20
9.19099947701001
 10
2.766318941576642
 20
9.262249477010002
 10
2.476185866576645
 20
9.262249477010002
 10
2.186052791576647
 20
9.262249477010002
 10
1.885238171576648
 20
9.509749477010011
 10
1.584423551576648
 20
9.757249477010006
 10
1.402203536576649
 20
9.756004207010008
 10
1.219983521576642
 20
9.754758937009996
  0
LWPOLYLINE
  5
4E
100
AcDbEntity
  8
0
  6
ByLayer
 62
  256
370
   -1
100
AcDbPolyline
 90
  182
 70
    1
 43
0
 10
1.624983521576649
 20
7.733037307010008
 10
1.894983521576642
 20
7.490217127010006
 10
1.992483521576644
 20
7.498638652009997
 42
0.01173199999999982
 10
2.049476921576632
 20
7.504911652009998
 42
0.001877999999999946
 10
2.160483521576617
 20
7.520197597010004
 42
0.002076999999999864
 10
2.291120036576623
 20
7.53924056200999
 42
0.001820000000000054
 10
2.427483521576642
 20
7.560204847010006
 42
-0.000633999999999988
 10
2.561663456576657
 20
7.581159187009995
 42
-0.000804000000000025
 10
2.685671021576641
 20
7.600159657010003
 42
-0.0006309999999999933
 10
2.789725046576645
 20
7.61579736701002
 42
-0.006596999999999968
 10
2.832483521576641
 20
7.621592542010006
 10
2.899983521576649
 20
7.629835567010005
 10
3.023733521576647
 20
7.463730172010017
 10
3.147483521576645
 20
7.29762476201001
 10
3.147483521576645
 20
7.15014719201001
 10
3.147483521576645
 20
7.002669607010006
 10
2.988940406576643
 20
6.863446387009998
 42
0.007931999999999977
 10
2.885911031576644
 20
6.770036227010019
 42
0.04436000000000014
 10
2.836291601576644
 20
6.714568327010019
 42
0.09203199999999966
 10
2.815330751576643
 20
6.672004537010011
 42
0.1331840000000007
 10
2.814945521576649
 20
6.630308902010007
 42
0.1186689999999977
 10
2.825633906576639
 20
6.610357057010008
 42
0.002275000000000119
 10
2.904605051576641
 20
6.522571297009995
 42
0.005371999999999958
 10
2.998765616576637
 20
6.421066717010003
 42
0.003557000000000019
 10
3.108956876576648
 20
6.30645584200999
 42
-0.004773999999999987
 10
3.226069886576652
 20
6.18405069701001
 42
-0.006667999999999948
 10
3.328259561576648
 20
6.072229402009995
 42
-0.006172999999999958
 10
3.409403726576644
 20
5.978724712010005
 42
-0.04205499999999981
 10
3.444792401576641
 20
5.928979687009997
 42
-0.0294589999999998
 10
3.487457666576644
 20
5.84609411201
 42
-0.02040599999999991
 10
3.526146611576645
 20
5.747998732010011
 42
-0.01791499999999994
 10
3.561423701576641
 20
5.633568337010011
 42
-0.01213799999999995
 10
3.593716466576642
 20
5.500999477010007
 42
-0.003020000000000165
 10
3.612340271576644
 20
5.413028017010006
 42
-0.0450959999999998
 10
3.615862316576645
 20
5.381839462010007
 42
-0.2007649999999785
 10
3.610437146576648
 20
5.36801400701001
 42
-0.2028640000000256
 10
3.596814011576646
 20
5.362249477010008
 42
-0.1791020000000061
 10
3.568106306576644
 20
5.372873467010008
 42
-0.05719100000000019
 10
3.536643116576645
 20
5.406806587009997
 42
-0.03077299999999971
 10
3.496384001576648
 20
5.469359632009995
 42
-0.006578000000000038
 10
3.434729696576647
 20
5.582977072009997
 42
0.02414899999999994
 10
3.345149816576646
 20
5.73505698701001
 42
0.01632600000000003
 10
3.229301576576649
 20
5.899667572010013
 42
0.01580899999999997
 10
3.097494431576649
 20
6.063492502010021
 42
0.0173480000000001
 10
2.95946929157665
 20
6.21349947701001
 42
0.005823999999999855
 10
2.864558051576649
 20
6.307510252010012
 42
0.03586600000000015
 10
2.811868031576644
 20
6.351646162010006
 42
0.1493080000000016
 10
2.785185176576645
 20
6.360760492010002
 42
0.4254090000000003
 10
2.77258372157665
 20
6.348499477010009
 42
0.1568669999999961
 10
2.781077906576646
 20
6.322567507010008
 42
0.005904999999999968
 10
2.842831691576645
 20
6.239547997010021
 42
0.008951999999999924
 10
2.926511561576639
 20
6.133766182010021
 42
0.004000999999999739
 10
3.040201616576635
 20
5.997458842010021
 42
-0.02372300000000004
 10
3.231909491576648
 20
5.748261487010007
 42
-0.01714400000000005
 10
3.422265911576653
 20
5.453890282010007
 42
-0.009916999999999959
 10
3.579950966576647
 20
5.178425302009991
 42
-0.5695329999999973
 10
3.555527741576645
 20
5.137249477010006
 42
-0.204768000000013
 10
3.534094556576641
 20
5.146411297010014
 42
-0.009556999999999889
 10
3.479519381576643
 20
5.205729412010007
 42
-0.01501199999999984
 10
3.418407881576643
 20
5.279077522010005
 42
-0.01169299999999993
 10
3.356322821576646
 20
5.362249477010011
 42
0.01757799999999997
 10
3.207858791576648
 20
5.55633128201
 42
0.01757399999999989
 10
3.046116221576645
 20
5.73952031201001
 42
0.01183700000000006
 10
2.895573116576644
 20
5.891053672009994
 42
0.193616999999992
 10
2.830460636576644
 20
5.917249477009991
 42
0.5718879999999382
 10
2.818399991576638
 20
5.896750447010019
 42
0.03878600000000001
 10
2.864643041576642
 20
5.826888067010011
 42
0.01737399999999975
 10
2.967838796576636
 20
5.703617062010025
 42
0.002977999999999969
 10
3.173257721576629
 20
5.477596597010027
 10
3.391387346576649
 20
5.240443702010012
 10
3.426935441576649
 20
5.090026387010007
 42
-0.002425999999999928
 10
3.440552621576646
 20
5.031131932010005
 42
-0.003454000000000075
 10
3.452033396576643
 20
4.978674157010011
 42
-0.00193600000000004
 10
3.461245226576648
 20
4.934298292010006
 42
-0.05062999999999904
 10
3.462456701576647
 20
4.922179282009985
 42
-0.1911549999999812
 10
3.458831021576647
 20
4.913083042010001
 42
-0.02166199999999989
 10
3.442617506576648
 20
4.897347697010005
 42
-0.02375200000000005
 10
3.420802361576649
 20
4.879720297010011
 42
-0.01717000000000022
 10
3.394956701576641
 20
4.862122117010013
 42
0.01006299999999997
 10
3.369133826576646
 20
4.845071497009992
 42
0.01522599999999986
 10
3.347440811576646
 20
4.829116447009993
 42
0.009896000000000054
 10
3.330365231576649
 20
4.815183592009999
 42
0.2325179999999562
 10
3.327950066576645
 20
4.809622117010008
 42
0.1612590000000225
 10
3.330512351576639
 20
4.802956402010009
 42
0.001605999999999794
 10
3.363392501576637
 20
4.763114737010017
 42
0.005041000000000362
 10
3.402099176576646
 20
4.717463032009997
 42
0.003222999999999982
 10
3.447950066576642
 20
4.665162847010009
 10
3.567483521576647
 20
4.53057620201001
 10
3.567483521576647
 20
4.285183447010006
 10
3.567483521576647
 20
4.039790677010011
 10
3.407823221576646
 20
3.853263667009999
 42
-0.007402000000000073
 10
3.344358686576639
 20
3.781303762010012
 42
-0.01057399999999963
 10
3.285783656576648
 20
3.719514427009996
 42
-0.00679000000000016
 10
3.235306886576645
 20
3.669841762010008
 42
-0.1383769999999974
 10
3.216573221576651
 20
3.659878702009996
 42
-0.01717800000000009
 10
3.178568636576653
 20
3.652985617010017
 42
-0.0003200000000001678
 10
2.97776728157654
 20
3.623779852009989
 42
-0.0001620000000000828
 10
2.769371186576518
 20
3.593674372009956
 42
-0.03580200000000043
 10
2.749497086576644
 20
3.592249477009996
 42
0.2753209999997496
 10
2.746296461576651
 20
3.59034252701
 42
0.001362000000000028
 10
2.727772751576644
 20
3.555897922010012
 42
0.005528999999999953
 10
2.706990416576648
 20
3.515943007010014
 42
0.003407999999999963
 10
2.683380476576652
 20
3.468499477009997
 42
-0.05069900000000003
 10
2.534546216576642
 20
3.22911810701001
 42
-0.025026
 10
2.301487676576644
 20
2.956655197010002
 42
-0.02434800000000023
 10
2.026192961576643
 20
2.692653007010001
 42
-0.03025599999999976
 10
1.744983521576652
 20
2.476522447010005
 42
0.002599000000000036
 10
1.637421671576645
 20
2.402937307009996
 42
0.03580199999999976
 10
1.600620971576644
 20
2.373374752010006
 42
0.2944929999999941
 10
1.59698132657664
 20
2.359101067010009
 42
0.2913640000001035
 10
1.608485576576644
 20
2.34978582700999
 42
0.06326899999999952
 10
1.658637716576648
 20
2.350425772010005
 42
0.02650899999999999
 10
1.725057626576647
 20
2.363346742010006
 42
0.02156800000000001
 10
1.806678011576638
 20
2.387549602010021
 42
0.01163900000000003
 10
1.905030161576645
 20
2.423973052010002
 42
-0.01292300000000005
 10
1.951639646576642
 20
2.441098372010014
 42
-0.01528700000000003
 10
1.996549391576644
 20
2.454779032010006
 42
-0.01420000000000002
 10
2.034844256576644
 20
2.464017682010008
 42
-0.08748200000000905
 10
2.055030161576649
 20
2.464700437010003
 42
-0.3838510000000045
 10
2.090457986576642
 20
2.422388182009996
 42
-0.09276700000000047
 10
2.068630721576644
 20
2.325212017009995
 42
-0.05364400000000017
 10
1.992603971576647
 20
2.19028955201
 42
-0.03041
 10
1.874391626576648
 20
2.044442392010005
 42
-0.03486099999999991
 10
1.749314141576642
 20
1.925758072010007
 42
-0.03401600000000021
 10
1.607974241576639
 20
1.824538657010005
 42
-0.0284360000000001
 10
1.432676861576647
 20
1.72954236701
 42
-0.01432
 10
1.201989176576642
 20
1.628970652009997
 10
0.9739948165766429
 20
1.53724947701
 10
0.8184940615766449
 20
1.537249477009999
 42
-0.01532400000000015
 10
0.6846723115766471
 20
1.541351692010016
 42
-0.02878499999999984
 10
0.5772871315766461
 20
1.554174202010016
 42
-0.03545599999999988
 10
0.4898324215766481
 20
1.576251832010011
 42
-0.05196499999999969
 10
0.4174996015766488
 20
1.608727192010001
 10
0.350015696576645
 20
1.647890527010006
 10
0.4549996015766435
 20
1.673718262009995
 42
-0.001312999999999994
 10
0.5057688115766465
 20
1.686066982010004
 42
-0.0005730000000000358
 10
0.5732069965766415
 20
1.702200892010001
 42
-0.0005669999999999975
 10
0.6448744315766479
 20
1.719173887010005
 42
-0.0007569999999999898
 10
0.7099835215766481
 20
1.734411652009996
 10
0.8599835215766455
 20
1.769277322010005
 10
0.6799835215766407
 20
1.780462612009988
 42
-0.04755300000000014
 10
0.2571670765766387
 20
1.847437072009991
 42
-0.0461850000000003
 10
-0.1497484084233631
 20
1.993411387010019
 42
-0.04445500000000028
 10
-0.5366718184233616
 20
2.217830032010016
 42
-0.03804000000000036
 10
-0.9000203884233617
 20
2.51801088701002
 42
-0.02823400000000003
 10
-1.166704893423361
 20
2.805533512010014
 42
-0.0315320000000001
 10
-1.388850423423359
 20
3.111288907010008
 42
-0.03013399999999997
 10
-1.578684483423352
 20
3.454661272010023
 42
-0.02209800000000007
 10
-1.748453763423351
 20
3.855541747010008
 10
-1.832516478423353
 20
4.081334017010001
 10
-1.832516478423353
 20
4.901448502010005
 10
-1.832516478423353
 20
5.721563002010001
 10
-1.734634248423356
 20
5.992176832009994
 42
-0.006219999999999962
 10
-1.643814378423353
 20
6.23382374201001
 42
-0.009439000000000034
 10
-1.558313913423355
 20
6.441340207010024
 42
-0.009192000000000065
 10
-1.463352183423359
 20
6.649449757010009
 42
-0.005498000000000064
 10
-1.343239053423353
 20
6.893434492010009
 10
-1.202214843423352
 20
7.172119492010012
 10
-1.101212778423356
 20
7.190729857010002
 42
0.06745500000000033
 10
-0.9222789034233532
 20
7.249415317010013
 42
0.06248899999999982
 10
-0.7602617584233579
 20
7.354741387010008
 42
0.04379899999999993
 10
-0.5866635034233507
 20
7.529524207010001
 42
0.01468300000000019
 10
-0.3643843234233495
 20
7.812936352009999
 10
-0.221826993423355
 20
8.006123242010005
 10
-0.1009217434233523
 20
7.998285172010016
 42
-0.03048199999999993
 10
8.834657664753831e-005
 20
7.98552266200999
 42
-0.04058599999999977
 10
0.08927567657664365
 20
7.961054662010003
 42
-0.03772800000000012
 10
0.1781521465766503
 20
7.92090512201001
 42
-0.02177600000000019
 10
0.2786727715766488
 20
7.860202267010003
 10
0.380595656576642
 20
7.792428112010001
 10
0.6052895965766465
 20
7.854107842009993
 42
-0.005489000000000026
 10
0.7086388315766485
 20
7.881261307010021
 42
-0.00310099999999997
 10
0.8344796815766404
 20
7.912022902010007
 42
-0.003094999999999978
 10
0.9617957365766501
 20
7.941477907010016
 42
-0.005077000000000022
 10
1.069983521576641
 20
7.964651407010022
 42
-0.00346200000000006
 10
1.197216356576644
 20
7.989639802010008
 42
-0.01827299999999995
 10
1.267515851576642
 20
8.000297992010012
 42
-0.03069799999999994
 10
1.311028571576649
 20
8.002586572009999
 42
-0.1737100000000145
 10
1.332483521576651
 20
7.99468637201001
 42
-0.008073000000000007
 10
1.348775111576629
 20
7.980599557010038
 42
-0.0001720000000000116
 10
1.427686646576625
 20
7.910060047009992
 42
-0.0003979999999999706
 10
1.519890236576586
 20
7.827449347009988
 42
-0.0002680000000000111
  0
LWPOLYLINE
  5
4F
100
AcDbEntity
  8
0
  6
ByLayer
 62
  256
370
   -1
100
AcDbPolyline
 90
   26
 70
    1
 43
0
 10
-1.668172038423359
 20
7.310532052010007
 42
-0.02056399999999971
 10
-1.642462383423361
 20
7.293370672010001
 42
-0.006901000000000085
 10
-1.60634563842335
 20
7.266282712010009
 42
-0.006853000000000085
 10
-1.567162983423353
 20
7.23517530701001
 42
-0.00778600000000001
 10
-1.530501978423357
 20
7.204277902009999
 10
-1.444676328423353
 20
7.129629037010005
 10
-1.477048593423354
 20
7.039657417009998
 42
-0.02103899999999975
 10
-1.527953808423358
 20
6.91491501701001
 42
-0.01227500000000002
 10
-1.598822628423356
 20
6.769718647009991
 42
-0.004697999999999646
 10
-1.673503068423355
 20
6.629036062010016
 42
-0.2749779999999885
 10
-1.697516478423353
 20
6.614749477010011
 42
-0.2303689999999648
 10
-1.709264823423355
 20
6.620465752010019
 42
-0.03733800000000033
 10
-1.723814028423353
 20
6.642172852010007
 42
-0.03043999999999991
 10
-1.739873733423356
 20
6.675000607010006
 42
-0.01374700000000029
 10
-1.757056758423357
 20
6.719749477010005
 42
-0.0221189999999997
 10
-1.777245363423351
 20
6.78621131201001
 42
-0.03457699999999957
 10
-1.78803553842335
 20
6.844991047010005
 42
-0.02286500000000011
 10
-1.793038368423358
 20
6.919884667010001
 42
-0.004737999999999934
 10
-1.794556758423356
 20
7.051905457010011
 42
-0.003269999999999847
 10
-1.793960268423353
 20
7.184009107010006
 42
-0.02429899999999992
 10
-1.790215323423353
 20
7.246723297010021
 42
-0.05425400000000041
 10
-1.781978823423358
 20
7.284146857010022
 42
-0.1029169999999995
 10
-1.766441658423356
 20
7.310655457009999
 42
-0.02646699999999984
 10
-1.742935233423349
 20
7.334031277009999
 42
-0.1847979999999983
 10
-1.728074883423351
 20
7.339696417010003
 42
-0.1271099999999794
 10
-1.710365253423356
 20
7.335096607009994
 42
-0.01011999999999994
  0
LWPOLYLINE
  5
50
100
AcDbEntity
  8
0
  6
ByLayer
 62
  256
370
   -1
100
AcDbPolyline
 90
  110
 70
    1
 43
0
 10
4.491313331576649
 20
6.669288742010011
 42
-0.01916899999999997
 10
4.833785516576647
 20
6.484608232010021
 42
-0.01329500000000001
 10
5.206593521576651
 20
6.251146852010008
 42
-0.01284699999999997
 10
5.583149411576647
 20
5.986976887010002
 42
-0.01369899999999995
 10
5.937483521576642
 20
5.709212227009999
 42
-0.017307
 10
6.135820496576639
 20
5.532836512010023
 42
-0.005980999999999992
 10
6.410166641576641
 20
5.264980687010008
 42
-0.005980999999999992
 10
6.678035561576648
 20
4.990629247010006
 42
-0.01729799999999999
 10
6.85446053657665
 20
4.792249477010019
 42
-0.02592900000000001
 10
7.332556286576645
 20
4.150720132010009
 42
-0.02686700000000006
 10
7.73557673657664
 20
3.470511397010022
 42
-0.02678600000000001
 10
8.064380996576643
 20
2.749011292009996
 42
-0.02543300000000002
 10
8.320597331576648
 20
1.984034617009995
 42
-0.003754000000000029
 10
8.371715291576647
 20
1.795544437010008
 42
-0.00786099999999996
 10
8.408065556576647
 20
1.648025212010013
 42
-0.005614999999999931
 10
8.446531001576652
 20
1.471582807009989
 42
-0.001118999999999956
 10
8.510987981576637
 20
1.155521692009984
 10
8.592483521576646
 20
0.7512939070100089
 10
8.592483521576646
 20
-0.1236305629899945
 10
8.592483521576646
 20
-0.9985550179899931
 10
8.46604735157665
 20
-1.63940277799
 10
8.339611196576648
 20
-2.280250522989995
 10
8.205780986576645
 20
-2.62525052299
 42
-0.005262000000000229
 10
8.091693746576638
 20
-2.910417052990014
 42
-0.008411999999999887
 10
7.987621466576638
 20
-3.151236847989996
 42
-0.009138999999999904
 10
7.882304546576639
 20
-3.373201807990005
 42
-0.008111999999999861
 10
7.764814676576641
 20
-3.60025052299002
 42
-0.02210899999999979
 10
7.256640836576645
 20
-4.451953402990011
 42
-0.024495
 10
6.691116146576641
 20
-5.225716147990016
 42
-0.02387999999999981
 10
6.153051536576648
 20
-5.829531562989991
 42
-0.1245839999999996
 10
5.775512336576644
 20
-6.059589952990003
 42
-0.4024610000000202
 10
5.763759536576646
 20
-6.053680927989994
 42
-0.1706899999999896
 10
5.763729446576641
 20
-6.034319797989994
 42
-0.02889300000000017
 10
5.784254606576644
 20
-5.984996182989988
 42
-0.002499999999999969
 10
5.844385916576641
 20
-5.862740227989988
 10
5.947730711576641
 20
-5.655250522989995
 10
5.919665426576643
 20
-5.498987947990003
 42
0.02559999999999998
 10
5.887715156576644
 20
-5.361851197989992
 42
0.028689
 10
5.842837946576645
 20
-5.233948597989978
 42
0.02832500000000008
 10
5.783043896576649
 20
-5.110621462990005
 42
0.02378500000000006
 10
5.706397601576643
 20
-4.987176517989994
 42
-0.002742999999999793
 10
5.674233206576638
 20
-4.939930882989991
 42
-0.00429200000000015
 10
5.647133276576642
 20
-4.898895052989991
 42
-0.001290999999999771
 10
5.624062361576641
 20
-4.863097282990005
 42
-0.1434480000000217
 10
5.622483521576641
 20
-4.857707302989994
 42
-0.174336999999981
 10
5.624352086576641
 20
-4.85251110798999
 42
-0.001424000000000084
 10
5.652567086576642
 20
-4.818550882989989
 42
-0.004878000000000023
 10
5.685639221576643
 20
-4.779749902989989
 42
-0.003093000000000005
 10
5.724895676576644
 20
-4.735153252990004
 42
0.02314300000000007
 10
5.905377596576639
 20
-4.512744712990001
 42
0.01765200000000008
 10
6.082482836576641
 20
-4.253941897990002
 42
0.01433100000000019
 10
6.273063071576653
 20
-3.933224422989992
 42
0.007176999999999859
 10
6.496357196576637
 20
-3.517750522989998
 42
0.01032100000000001
 10
6.727007411576645
 20
-3.050047132990009
 42
0.01156299999999987
 10
6.929168771576641
 20
-2.590444102990014
 42
0.01126199999999974
 10
7.114289666576633
 20
-2.111376487990031
 42
0.008870000000000109
 10
7.293735626576634
 20
-1.584880012990007
 42
0.002803000000000115
 10
7.345515146576638
 20
-1.420487302989983
 42
0.01572300000000003
 10
7.369938341576645
 20
-1.331579317989999
 42
0.02651100000000002
 10
7.380209771576645
 20
-1.276275862989991
 42
0.1535319999999998
 10
7.37512877657664
 20
-1.247380012989992
 42
0.02863100000000008
 10
7.303301981576645
 20
-1.126457812990026
 42
0.001588999999999974
 10
7.056650366576644
 20
-0.7631387179900315
 42
0.002440999999999893
 10
6.812418626576655
 20
-0.4095507229900037
 42
0.01222899999999986
 10
6.669859076576645
 20
-0.2155842979899907
 42
0.01557699999999997
 10
6.280939751576651
 20
0.2561981770100044
 42
0.01483500000000007
 10
5.857219316576649
 20
0.7108135720100117
 42
0.01502600000000001
 10
5.413399886576645
 20
1.133353657010003
 42
0.01722499999999986
 10
4.964228756576641
 20
1.508886967010012
 42
0.01793100000000002
 10
4.435338671576647
 20
1.891308562010008
 42
0.01808500000000004
 10
3.881880326576647
 20
2.23370025701
 42
0.01834199999999998
 10
3.313236746576648
 20
2.530586137010009
 42
0.01984099999999995
 10
2.738865371576642
 20
2.776689817010008
 42
-0.00530000000000013
 10
2.665845221576644
 20
2.805494257010009
 42
-0.008784000000000019
 10
2.604951011576645
 20
2.83152023201002
 42
-0.003072000000000203
 10
2.553970061576646
 20
2.854753807009998
 42
-0.380617999999888
 10
2.551365371576648
 20
2.860752112009997
 42
-0.09169499999998934
 10
2.555702831576639
 20
2.868680767010034
 42
-0.0002440000000000454
 10
2.634417791576656
 20
2.965237732010053
 42
-0.001494000000000029
 10
2.723701961576644
 20
3.07398549701
 42
-0.0009299999999999868
 10
2.829016211576647
 20
3.200997337010008
 10
3.103048886576644
 20
3.530239912010011
 10
3.189016211576644
 20
3.547583227010001
 42
0.007629000000000094
 10
3.364101401576639
 20
3.585694222009998
 42
0.05826100000000003
 10
3.443227721576645
 20
3.614217262010008
 42
0.07419999999999996
 10
3.50577529157664
 20
3.657979072010007
 42
0.01628099999999995
 10
3.598280741576637
 20
3.751560802010012
 42
0.01658700000000013
 10
3.701385101576643
 20
3.870576622010005
 42
0.033645
 10
3.77266397657665
 20
3.971815477010012
 42
0.03895199999999987
 10
3.822981926576647
 20
4.07128662701001
 42
0.03238900000000024
 10
3.860926016576648
 20
4.183637287010001
 10
3.893864261576646
 20
4.306985122010012
 10
3.819811961576649
 20
4.538367307010011
 42
-0.001945999999999994
 10
3.791301986576644
 20
4.628657782010022
 42
-0.002845000000000197
 10
3.766963421576639
 20
4.708390342010022
 42
-0.00138099999999979
 10
3.74685551657664
 20
4.776314332010003
 42
-0.05058400000000013
 10
3.743890391576644
 20
4.79224947701001
 42
-0.1035490000000001
 10
3.745867316576643
 20
4.808178817009994
 42
-0.002509999999999946
 10
3.770385071576648
 20
4.878640102009997
 42
-0.005366999999999997
 10
3.800561171576643
 20
4.961151622010001
 42
-0.003610999999999994
 10
3.836709956576646
 20
5.05474947701
 42
0.01059799999999988
 10
4.006805681576644
 20
5.514166537009999
 42
0.01747200000000002
 10
4.128548576576645
 20
5.909887582009999
 42
0.02068799999999987
 10
4.205665571576642
 20
6.251299912010013
 42
0.03468199999999978
 10
4.238364386576648
 20
6.543499477010002
 10
4.246737941576642
 20
6.742249477010006
 10
4.294690541576642
 20
6.742249477010001
 42
-0.07562900000000056
 10
4.322188421576644
 20
6.738066247010007
 42
-0.01334500000000011
 10
4.371745526576646
 20
6.721167442010006
 42
-0.01396200000000005
 10
4.43003984657664
 20
6.697664497010006
 42
-0.01126599999999996
  0
LWPOLYLINE
  5
51
100
AcDbEntity
  8
0
  6
ByLayer
 62
  256
370
   -1
100
AcDbPolyline
 90
   48
 70
    1
 43
0
 10
-1.789642293423353
 20
6.494045077010007
 42
-0.1121930000000001
 10
-1.760038053423354
 20
6.43165869701
 42
-0.09003599999999991
 10
-1.757056503423357
 20
6.357209542010011
 42
-0.03221200000000016
 10
-1.782763248423354
 20
6.232925557009988
 42
-0.002823999999999796
 10
-1.869840273423346
 20
5.923133932010018
 10
-1.998610113423354
 20
5.47474947701
 10
-2.031138783423359
 20
4.90939493201002
 42
0.001408000000000011
 10
-2.048577528423362
 20
4.590656032009996
 42
0.008209999999999979
 10
-2.054530638423355
 20
4.422664012009996
 42
0.01563899999999997
 10
-2.053190793423355
 20
4.313488237010006
 42
0.03047900000000004
 10
-2.044109958423352
 20
4.226894932010006
 42
0.03332999999999986
 10
-1.945424793423358
 20
3.809298097010007
 42
0.02747799999999999
 10
-1.786900308423358
 20
3.379873732010014
 42
0.02739100000000008
 10
-1.581530793423355
 20
2.968826587010006
 42
0.03241999999999998
 10
-1.342464618423356
 20
2.606257537010009
 10
-1.203623898423357
 20
2.422765582010001
 10
-1.281820188423354
 20
2.400402697010011
 42
-0.03786300000000031
 10
-1.396872423423366
 20
2.376737857009994
 42
-0.004472000000000131
 10
-1.65634701342338
 20
2.345918137009988
 42
-0.004302999999999898
 10
-2.014293303423366
 20
2.309760022010053
 42
-0.001684000000000055
 10
-2.508875433423383
 20
2.265774772010019
 10
-3.102734403423353
 20
2.214975727010007
 10
-3.401375433423355
 20
2.249753617010025
 42
-0.008532999999999791
 10
-3.898497618423358
 20
2.31626217701
 42
-0.008634999999999884
 10
-4.391092923423375
 20
2.399467402010002
 42
-0.009126999999999804
 10
-4.835679783423358
 20
2.490911527009998
 42
-0.01845300000000012
 10
-5.181266478423359
 20
2.582108542010012
 10
-5.312516478423351
 20
2.621978152010016
 10
-5.312516478423357
 20
2.686771387010012
 42
-0.0661229999999999
 10
-5.302599003423355
 20
2.761436212010011
 42
-0.0272999999999999
 10
-5.270586243423357
 20
2.85846185201001
 42
-0.01770799999999999
 10
-5.212339158423353
 20
2.992957237010011
 42
-0.005065999999999995
 10
-5.11261711842336
 20
3.197183257009995
 42
-0.01578200000000002
 10
-4.78310224842336
 20
3.806233627010003
 42
-0.02313699999999998
 10
-4.452514818423354
 20
4.317755617010007
 42
-0.02351699999999992
 10
-4.080363123423358
 20
4.79035242701002
 42
-0.017104
 10
-3.625016478423357
 20
5.280823117010016
 42
-0.01185100000000002
 10
-3.223708068423351
 20
5.665784857009997
 42
-0.01570800000000004
 10
-2.839747683423358
 20
5.995473592010025
 42
-0.01759199999999995
 10
-2.489252598423356
 20
6.258017632010002
 42
-0.03531000000000006
 10
-2.19232600842335
 20
6.43484880701
 42
-0.008294000000000008
 10
-2.088212493423356
 20
6.485135302010005
 42
-0.02942499999999993
 10
-2.019228783423354
 20
6.512251762010013
 42
-0.04170100000000054
 10
-1.961148108423356
 20
6.525994702010018
 42
-0.03385900000000002
 10
-1.897355178423356
 20
6.531192547009995
 42
-0.01761999999999976
 10
-1.854335493423355
 20
6.530261962010001
 42
-0.06891800000000464
 10
-1.828318383423354
 20
6.525137287010013
 42
-0.09350699999999024
 10
-1.808892243423357
 20
6.514051372010009
 42
-0.04985000000000048
  0
LWPOLYLINE
  5
52
100
AcDbEntity
  8
0
  6
ByLayer
 62
  256
370
   -1
100
AcDbPolyline
 90
   38
 70
    1
 43
0
 10
-7.585016478423356
 20
3.144293812009998
 10
-7.330016478423358
 20
3.133405012010002
 10
-7.033118178423354
 20
2.975503297010007
 10
-6.736219863423356
 20
2.817601597010011
 10
-6.63186817842336
 20
2.598670042010005
 42
-0.004715999999999989
 10
-6.591925068423361
 20
2.512792732010005
 42
-0.006784000000000082
 10
-6.558321498423353
 20
2.435973112010011
 42
-0.003863000000000053
 10
-6.531455253423355
 20
2.370810802010005
 42
-0.1008700000000002
 10
-6.528032958423355
 20
2.352243982010002
 42
-0.04115100000000014
 10
-6.529806348423353
 20
2.334752032009999
 42
-0.003607999999999902
 10
-6.538250298423355
 20
2.290966612010008
 42
-0.004711999999999892
 10
-6.549207258423349
 20
2.238831247010011
 42
-0.00364800000000019
 10
-6.562090128423357
 20
2.182249477010011
 10
-6.595630818423357
 20
2.039749477010005
 10
-6.666949788423356
 20
2.035162252009997
 42
-0.04970299999999968
 10
-6.764478888423355
 20
2.038586137010005
 42
-0.01968700000000016
 10
-6.896714043423353
 20
2.061800677010003
 42
-0.01647500000000011
 10
-7.05875868342336
 20
2.102505052009992
 42
-0.009462000000000033
 10
-7.251320718423356
 20
2.161643797010001
 10
-7.502624958423352
 20
2.244058267010011
 10
-8.03882071842342
 20
2.207691877009964
 42
-0.001045999999999896
 10
-8.245087398423408
 20
2.194135762009974
 42
-0.001700000000000079
 10
-8.420346528423577
 20
2.183583922010087
 42
-0.0002139999999999975
 10
-8.576389008423556
 20
2.174788567010037
 42
-0.1416380000000206
 10
-8.584676223423353
 20
2.176689907010005
 42
-0.1634329999999486
 10
-8.590096383423361
 20
2.182627597010022
 42
-0.001322999999999915
 10
-8.615969823423365
 20
2.241637192010019
 42
-0.004580000000000077
 10
-8.645012718423363
 20
2.310060667010024
 42
-0.002907999999999973
 10
-8.677642908423355
 20
2.390254057010011
 10
-8.760949848423353
 20
2.598453802010006
 10
-8.71445809842335
 20
2.720824417009999
 42
-0.04969499999999993
 10
-8.648774418423349
 20
2.852605387010016
 42
-0.07395400000000005
 10
-8.564977473423355
 20
2.950227337010007
 42
-0.06103400000000007
 10
-8.444330253423356
 20
3.031339492009994
 42
-0.023751
 10
-8.260630428423353
 20
3.11392352201
 42
-0.04694899999999944
 10
-8.16474879342335
 20
3.141615667009991
 42
-0.03561799999999995
 10
-8.055975453423356
 20
3.154304422010016
 42
-0.01872200000000005
 10
-7.893909618423354
 20
3.155516902010003
 42
-0.003178999999999954
  0
LWPOLYLINE
  5
53
100
AcDbEntity
  8
0
  6
ByLayer
 62
  256
370
   -1
100
AcDbPolyline
 90
  140
 70
    1
 43
0
 10
2.734718351576649
 20
2.593160302010009
 42
-0.002205999999999989
 10
2.847523811576651
 20
2.542858312010019
 42
-0.003495000000000109
 10
2.943679571576645
 20
2.498659657010013
 42
-0.0008620000000001378
 10
3.027285311576659
 20
2.459343667010002
 42
-0.1449849999999913
 10
3.034686461576646
 20
2.452730122009996
 42
-0.1831329999999931
 10
3.040650446576644
 20
2.421939007009991
 42
-0.005303
 10
3.016202786576639
 20
2.288749432009994
 42
-0.01152700000000021
 10
2.987377361576639
 20
2.156871997010001
 42
-0.0266580000000002
 10
2.958246356576642
 20
2.059801657010007
 42
-0.03749600000000007
 10
2.847531341576647
 20
1.811754952010005
 42
-0.02971900000000017
 10
2.692997006576646
 20
1.56205737701002
 42
-0.02710200000000018
 10
2.494440806576645
 20
1.310300227010019
 42
-0.02054600000000022
 10
2.251299296576641
 20
1.056054607009995
 42
-0.01238700000000014
 10
2.114404481576646
 20
0.9305896570099943
 42
-0.01887799999999972
 10
1.988994956576646
 20
0.8293135870099995
 42
-0.02104100000000004
 10
1.86778031657664
 20
0.7464736270100099
 42
-0.02317299999999989
 10
1.743786596576648
 20
0.676938157010008
 42
-0.02283599999999965
 10
1.672020446576644
 20
0.6449672320100082
 42
-0.02982699999999983
 10
1.603687241576647
 20
0.6227919670100184
 42
-0.01993299999999988
 10
1.514673386576646
 20
0.6034191370100066
 42
-0.00469800000000009
 10
1.36448195657664
 20
0.5784040870100022
 42
0.01377499999999987
 10
1.316287676576648
 20
0.56947512701
 42
0.004735
 10
1.247058026576645
 20
0.5539786120100034
 42
0.004702000000000049
 10
1.170987941576649
 20
0.5354366620100199
 42
0.005428000000000014
 10
1.098849476576646
 20
0.5162968870100002
 10
0.928718531576643
 20
0.4691751220100002
 10
0.9063265615766412
 20
0.3919622920099998
 42
0.02216800000000009
 10
0.8770051765766436
 20
0.2710623820100002
 42
0.005097999999999995
 10
0.8387147215766397
 20
0.06463568201000713
 42
0.004467000000000036
 10
0.793873241576641
 20
-0.205869307989996
 42
0.002252999999999995
 10
0.7419108565766346
 20
-0.5477505229900004
 10
0.6744831115766482
 20
-1.005250522989989
 10
0.641989841576642
 20
-2.122750522989989
 10
0.6094965565766495
 20
-3.240250522989989
 10
0.6557441215766247
 20
-3.688754602989963
 42
0.0007509999999999764
 10
0.6737637715766276
 20
-3.860972002989936
 42
0.00123600000000011
 10
0.6895802665766269
 20
-4.006541542989666
 42
9.100000000012114e-005
 10
0.7041276715766185
 20
-4.137200752989855
 42
0.1868939999999749
 10
0.7059876115766486
 20
-4.140768232989998
 42
0.1738799999999982
 10
0.709785446577186
 20
-4.142269147989509
 42
3.899999999991126e-005
 10
0.9048878515766989
 20
-4.148508682989856
 42
0.0007879999999999306
 10
1.121257841576477
 20
-4.155069832989966
 42
0.0004770000000001054
 10
1.377483521576592
 20
-4.162190452989961
 10
2.044983521576642
 20
-4.180103137989988
 10
2.524983521576637
 20
-4.044979057989991
 42
-0.001462999999999987
 10
2.934519266576628
 20
-3.930983182989991
 42
-0.004704000000000042
 10
3.208024046576645
 20
-3.858474457989988
 42
-0.00467900000000001
 10
3.400029491576647
 20
-3.811409572989984
 42
-0.05782100000000066
 10
3.474657476576649
 20
-3.802750522989982
 10
3.526357286576648
 20
-3.802750522989989
 10
3.517269176576645
 20
-3.919000522990004
 42
0.01108799999999999
 10
3.513206201576644
 20
-3.991681192989984
 42
0.001187000000000029
 10
3.507922226576646
 20
-4.160474887990002
 42
0.001460999999999964
 10
3.502694126576635
 20
-4.361536027989976
 42
0.001175000000000043
 10
3.498211841576623
 20
-4.577796232990027
 42
-0.001610999999999624
 10
3.493695311576637
 20
-4.786903927989989
 42
-0.002573000000000161
 10
3.488340671576623
 20
-4.965548827990004
 42
-0.0005210000000001701
 10
3.482659826576626
 20
-5.122613932990042
 42
-0.1298169999999934
 10
3.47860721657664
 20
-5.135932357989993
 42
-0.1642659999999951
 10
3.453060026576637
 20
-5.157086107990011
 42
-0.002150999999999884
 10
3.25682543657664
 20
-5.231324242989999
 42
-0.006788999999999963
 10
3.054203156576643
 20
-5.303864962990004
 42
-0.009324000000000169
 10
2.869983521576644
 20
-5.363194312990005
 42
-0.005305000000000092
 10
2.775733376576639
 20
-5.390532367989985
 42
-0.002349000000000017
 10
2.650749146576633
 20
-5.42471990298999
 42
-0.002323999999999761
 10
2.517989711576644
 20
-5.459703892989983
 42
-0.003131000000000048
 10
2.397483521576644
 20
-5.490056767990012
 10
2.119983521576642
 20
-5.558107732989988
 10
1.138927706576649
 20
-5.59716024798999
 10
0.157871891576647
 20
-5.636212762989985
 10
-0.07607229342336308
 20
-5.587925632989991
 42
-0.009339000000000042
 10
-0.438492843423371
 20
-5.506034632989998
 42
-0.01036500000000004
 10
-0.7851406234233662
 20
-5.41321302798999
 42
-0.01080700000000003
 10
-1.113259593423359
 20
-5.310283462989981
 42
-0.012607
 10
-1.420016478423352
 20
-5.198030722989976
 42
-0.007940000000000072
 10
-1.565991348423359
 20
-5.137704187989981
 42
-0.01149699999999994
 10
-1.692768153423358
 20
-5.079444442989999
 42
-0.009596000000000039
 10
-1.793822418423356
 20
-5.02773689298999
 42
-0.09678299999999829
 10
-1.830278583423357
 20
-4.997947027989997
 42
-0.1264200000000019
 10
-1.86211438842335
 20
-4.930536802989977
 42
-0.003942000000000059
 10
-1.917778203423355
 20
-4.627784827989953
 42
-0.007923000000000039
 10
-1.972648578423362
 20
-4.283616547989973
 42
-0.006962999999999656
 10
-2.019212748423356
 20
-3.922750522990007
 42
-0.01519499999999993
 10
-2.032310643423353
 20
-3.767209432989993
 42
-0.005852000000000248
 10
-2.041392258423357
 20
-3.550684957989928
 42
-0.001007999999999839
 10
-2.047950603423356
 20
-3.318170377989986
 42
-0.4219029999999829
 10
-2.037800058423357
 20
-3.307750522989987
 42
-0.1253680000000747
 10
-2.03418616842373
 20
-3.308671117989661
 42
-2.800000000012889e-005
 10
-1.878331113422966
 20
-3.393597637990354
 42
-0.0005790000000000298
 10
-1.705692918423409
 20
-3.487941577989972
 42
-0.0003510000000000365
 10
-1.501550058423358
 20
-3.59999601798998
 10
-0.970016478423352
 20
-3.892241512990005
 10
-0.8898686284233552
 20
-3.812185117989991
 10
-0.809720763423355
 20
-3.732128722990005
 10
-0.7735761784234683
 20
-2.27118962298983
 42
-0.0003779999999999954
 10
-0.7491865084234455
 20
-1.314613567989835
 42
-0.004873000000000011
 10
-0.7363272934233578
 20
-0.9574890379900086
 42
-0.01258599999999998
 10
-0.7202355484233554
 20
-0.730931827989991
 42
-0.01214500000000001
 10
-0.6926362084233659
 20
-0.5027505229900378
 42
0.002792000000000209
 10
-0.6318518434233624
 20
-0.06850914799003505
 42
0.003079999999999849
 10
-0.5779629334233576
 20
0.3524182720099445
 42
0.002172000000000234
 10
-0.5352003934233567
 20
0.7167812170100234
 42
0.02812799999999993
 10
-0.5275164784233545
 20
0.8532597220100016
 42
0.1151569999999958
 10
-0.5324250034233524
 20
0.8742894220100019
 42
0.009113999999999928
 10
-0.5589027184233555
 20
0.9255437470100106
 42
0.01198799999999993
 10
-0.593438853423359
 20
0.9859972720100096
 42
0.008889999999999997
 10
-0.6343632634233531
 20
1.05115787201001
 42
-0.0287079999999999
 10
-0.780655503423354
 20
1.305969247010012
 42
-0.05682099999999991
 10
-0.8605453534233584
 20
1.524657697010006
 42
-0.06137300000000011
 10
-0.8857279534233578
 20
1.744329622009999
 42
-0.03933899999999999
 10
-0.8633706634233536
 20
2.000391487010006
 42
-0.005403999999999912
 10
-0.8533553734233561
 20
2.056532632010011
 42
-0.007907999999999924
 10
-0.843227133423351
 20
2.105698012010016
 42
-0.004324999999999973
 10
-0.8337073084233534
 20
2.14679547701001
 42
-0.1277660000000121
 10
-0.8287038334233594
 20
2.15616630701001
 42
-0.2393589999999189
 10
-0.8204518384233538
 20
2.159237872009992
 42
-0.01802499999999985
 10
-0.7960952734233543
 20
2.155566922009998
 42
-0.02177200000000018
 10
-0.76607518842335
 20
2.148564037010022
 42
-0.01466400000000012
 10
-0.7324701634233564
 20
2.138093662010024
 42
-0.04040400000000002
 10
-0.5813896534233542
 20
2.072046472009997
 42
-0.0467419999999997
 10
-0.4505981134233552
 20
1.985171302009995
 42
-0.03542899999999998
 10
-0.3125877034233566
 20
1.856457682010015
 42
-0.01251499999999989
 10
-0.1332983884233589
 20
1.65383657201
 10
0.002840261576648073
 20
1.491994702010011
 10
0.3377336365766459
 20
1.381949482010008
 10
0.6726270115766447
 20
1.271904277010002
 10
0.7813052665766457
 20
1.292253247010004
 42
0.02478999999999993
 10
1.059121901576644
 20
1.358671552009988
 42
0.03620200000000023
 10
1.294808171576649
 20
1.446473782009991
 42
0.0336179999999999
 10
1.527703076576639
 20
1.572556117010012
 42
0.0178599999999999
 10
1.79868263657664
 20
1.757592877010005
 10
1.978110266576649
 20
1.88974947701
 10
2.188824461576635
 20
2.305999477010015
 42
-0.003292999999999986
 10
2.275765916576644
 20
2.474974837010011
 42
-0.006592999999999931
 10
2.347099751576646
 20
2.607126832009996
 42
-0.002200000000000059
 10
2.407613306576645
 20
2.714665432010008
 42
-0.2697309999999887
 10
2.420649011576643
 20
2.722249477009993
 42
-0.09639099999999226
 10
2.435892656576645
 20
2.719283212010005
 42
-0.001398999999999902
 10
2.521614896576651
 20
2.684329537010008
 42
-0.003785999999999937
 10
2.620914806576648
 20
2.642633497009999
 42
-0.002481999999999967
  0
LWPOLYLINE
  5
54
100
AcDbEntity
  8
0
  6
ByLayer
 62
  256
370
   -1
100
AcDbPolyline
 90
   82
 70
    1
 43
0
 10
-5.020016478423359
 20
2.295101077009994
 42
0.003076999999999912
 10
-4.90701153342336
 20
2.270138482010012
 42
0.001119000000000067
 10
-4.746547728423357
 20
2.236102012010015
 42
0.001109999999999938
 10
-4.570823928423375
 20
2.199646537010036
 42
0.001325000000000057
 10
-4.405016478423344
 20
2.166089497010006
 10
-4.015016478423354
 20
2.088234082010011
 10
-3.38501647842343
 20
2.11335057701001
 42
0.001424999999999933
 10
-2.617584243423619
 20
2.146137472009997
 42
0.001628000000000114
 10
-1.883633358423603
 20
2.18198508701002
 42
0.0009770000000000993
 10
-1.244582988423433
 20
2.216535037010033
 42
0.01923999999999987
 10
-1.048766478423358
 20
2.235083167010011
 10
-0.9925164784233582
 20
2.242604002010012
 10
-0.9925164784233582
 20
1.775519947009997
 10
-0.9925164784233582
 20
1.308435907010001
 10
-0.8182488334233551
 20
1.036937662010011
 10
-0.6439811884233511
 20
0.7654394170100005
 10
-0.7066595584233468
 20
0.3900944470100036
 42
0.00222400000000003
 10
-0.7370769784233602
 20
0.2028177070099844
 42
0.0008329999999999691
 10
-0.7781245534233534
 20
-0.06005543299002625
 42
0.0008250000000000407
 10
-0.8218863184233243
 20
-0.346541827990027
 42
0.00100199999999999
 10
-0.8619282034233569
 20
-0.61525052299001
 10
-0.9545184784233529
 20
-1.245250522989991
 10
-0.9590233834233521
 20
-2.456500522989998
 10
-0.9635282884233509
 20
-3.667750522989991
 10
-1.019272383423351
 20
-3.667534897989992
 42
-0.1236609999999991
 10
-1.176908013423373
 20
-3.627293707989987
 42
-0.008593999999999625
 10
-1.578930003423372
 20
-3.400725577989993
 42
-0.006515999999999847
 10
-1.982487183423364
 20
-3.156940102989998
 42
-0.1972329999999997
 10
-2.050334598423356
 20
-3.062876632990004
 42
-0.004161000000000158
 10
-2.055682188423361
 20
-3.039733927989971
 42
-0.0001459999999999657
 10
-2.075594958423366
 20
-2.950041772990026
 42
-0.0002720000000001869
 10
-2.099031963423442
 20
-2.844056932989822
 42
-0.0001900000000000745
 10
-2.125338303423444
 20
-2.724573337989838
 10
-2.192516478423358
 20
-2.418896152989994
 10
-2.192516478423358
 20
-0.9133233379899792
 10
-2.192516478423358
 20
0.5922494770100073
 10
-2.275016478423351
 20
0.5922494770100073
 10
-2.357516478423353
 20
0.5922494770100073
 10
-2.357516478423353
 20
0.4940045770099954
 42
-0.01848699999999974
 10
-2.359073973423354
 20
0.4518957370100053
 42
-0.02039899999999986
 10
-2.36374203342335
 20
0.4113879670100073
 42
-0.02171299999999976
 10
-2.370763368423359
 20
0.3765619120100112
 42
-0.05878899999999967
 10
-2.379623133423352
 20
0.3530101120100101
 42
-0.1302730000000014
 10
-2.48657160342335
 20
0.2350170070100006
 42
-0.03527600000000009
 10
-2.709175113423356
 20
0.1120032970100082
 42
-0.03019400000000001
 10
-3.011749008423363
 20
-0.006732292990006883
 42
-0.01815699999999996
 10
-3.38283538842336
 20
-0.1123448179899817
 42
-0.01203199999999983
 10
-3.751946838423353
 20
-0.1936839979899929
 42
-0.01156200000000016
 10
-4.129470888423358
 20
-0.2583765079899933
 42
-0.009350000000000131
 10
-4.574980173423368
 20
-0.315664777989987
 42
-0.004204999999999966
 10
-5.161803903423364
 20
-0.3750052879900068
 10
-5.723591343423355
 20
-0.427045117990005
 10
-5.878053903423355
 20
-0.3870149929899882
 42
-0.006475000000000003
 10
-5.937270213423353
 20
-0.3708474679899887
 42
-0.0104790000000001
 10
-5.987143098423359
 20
-0.3553961629899871
 42
-0.004458999999999857
 10
-6.028546083423356
 20
-0.3412003129900047
 42
-0.3180050000000375
 10
-6.032516478423357
 20
-0.3355889629899949
 42
-0.1727120000000356
 10
-6.029741673423354
 20
-0.3277955179899834
 42
-0.001246999999999952
 10
-5.985197313423357
 20
-0.2734481029900033
 42
-0.004537000000000046
 10
-5.933178513423354
 20
-0.2114581129899928
 42
-0.002868000000000084
 10
-5.871429963423363
 20
-0.1400483329900046
 42
0.007632000000000098
 10
-5.720236488423362
 20
0.03820590700998894
 42
0.01393099999999989
 10
-5.60324016342336
 20
0.1888552870100215
 42
0.01662200000000009
 10
-5.510661678423354
 20
0.3244051270099974
 42
0.02103599999999987
 10
-5.434762908423354
 20
0.4557720970100041
 42
0.01767800000000002
 10
-5.343523998423358
 20
0.6463563520100098
 42
0.03129700000000005
 10
-5.284023048423354
 20
0.8100889720100064
 42
0.02926600000000026
 10
-5.243002443423357
 20
0.9872963770099965
 42
0.0134110000000001
 10
-5.209379898423355
 20
1.222242817009999
 10
-5.184186318423358
 20
1.43973615701001
 10
-5.248407228423358
 20
1.72474281701002
 42
-0.005040000000000127
 10
-5.302068423423355
 20
1.974604942010019
 42
-0.01708200000000015
 10
-5.329837203423352
 20
2.139025357010007
 42
-0.0242020000000002
 10
-5.339415858423355
 20
2.25177014201001
 42
-0.1076780000000003
 10
-5.327707413423359
 20
2.316788497010009
 42
-0.02663800000000017
 10
-5.316195213423355
 20
2.340868297010012
 42
-0.1068400000000024
 10
-5.305588413423358
 20
2.353156282010003
 42
-0.155295999999975
 10
-5.293143708423351
 20
2.357526187009997
 42
-0.07828700000000277
 10
-5.276470698423354
 20
2.355402472010011
 42
0.01230899999999987
 10
-5.25503728842337
 20
2.349739042009993
 42
0.0006930000000000603
 10
-5.188162398423382
 20
2.333916532010011
 42
0.001065000000000003
 10
-5.108494218423366
 20
2.315362687010023
 42
0.0007800000000000348
  0
LWPOLYLINE
  5
55
100
AcDbEntity
  8
0
  6
ByLayer
 62
  256
370
   -1
100
AcDbPolyline
 90
  122
 70
    1
 43
0
 10
3.602896451576646
 20
2.169785227010021
 42
-0.02687800000000008
 10
4.072056131576641
 20
1.898646742010008
 42
-0.01983900000000008
 10
4.561193696576646
 20
1.551330637010015
 42
-0.01768100000000012
 10
5.077210151576645
 20
1.12329137201001
 42
-0.01243000000000005
 10
5.627867126576643
 20
0.6075259720100163
 42
-0.01346700000000006
 10
6.232088741576646
 20
-0.02020887798999649
 42
-0.02421599999999992
 10
6.687489176576642
 20
-0.5709085129899933
 42
-0.02933600000000006
 10
6.998197931576651
 20
-1.041161242989993
 42
-0.08156700000000007
 10
7.138157141576646
 20
-1.410250522990005
 10
7.156370591576645
 20
-1.500250522990001
 10
7.080236591576638
 20
-1.696434487990006
 42
-0.008138999999999829
 10
6.937867856576638
 20
-2.046299467989994
 42
-0.006679999999999818
 10
6.774785786576627
 20
-2.415344152989995
 42
-0.00537900000000003
 10
6.570289571576652
 20
-2.849475427989983
 42
-0.002543000000000165
 10
6.297652316576634
 20
-3.405250522990032
 42
-0.005245000000000076
 10
6.094549991576642
 20
-3.803468362990005
 42
-0.00579400000000038
 10
5.889618566576626
 20
-4.184262037990024
 42
-0.003650000000000042
 10
5.704784696576636
 20
-4.512692017989991
 42
-0.06383399999999985
 10
5.631088676576643
 20
-4.610159917989991
 42
-0.1902740000000162
 10
5.609068676576648
 20
-4.619989507989986
 42
-0.01921199999999964
 10
5.550562106576642
 20
-4.620304192989986
 42
-0.01279300000000008
 10
5.454067976576634
 20
-4.614640672989999
 42
-0.002110999999999812
 10
5.268288416576649
 20
-4.59816851299
 10
4.924983521576649
 20
-4.566267697989993
 10
4.714983521576637
 20
-4.452612922989995
 42
-0.0108059999999999
 10
4.458822656576636
 20
-4.306731952989993
 42
-0.03268699999999986
 10
4.293742166576649
 20
-4.192664752989987
 42
-0.04814499999999979
 10
4.185033956576645
 20
-4.088049442989998
 42
-0.06987099999999991
 10
4.11340145657664
 20
-3.97600934298999
 42
-0.02450100000000045
 10
4.094855606576646
 20
-3.929622607989998
 42
-0.03664699999999987
 10
4.083719741576647
 20
-3.887437657989999
 42
-0.03221900000000002
 10
4.078012121576648
 20
-3.840266887990004
 42
-0.01423099999999987
 10
4.076282441576643
 20
-3.777472492989993
 42
-0.07476400000000019
 10
4.114749131576648
 20
-3.523251067989988
 42
-0.03501400000000009
 10
4.235204126576646
 20
-3.212157637989988
 42
-0.0191089999999999
 10
4.470208406576646
 20
-2.758139902989992
 42
-0.003736000000000068
 10
4.930233026576639
 20
-1.960845592989985
 42
0.003570999999999983
 10
5.012370296576636
 20
-1.818597322990003
 42
0.008819999999999989
 10
5.070011636576646
 20
-1.712801752989988
 42
0.004013999999999901
 10
5.112344156576647
 20
-1.630121227989995
 42
0.4505990000000827
 10
5.108253596576647
 20
-1.619925142989991
 42
0.002851999999999954
 10
5.094203216576602
 20
-1.615004617990053
 42
2.500000000004304e-005
 10
4.987397231576765
 20
-1.57828917799003
 42
8.700000000006916e-005
 10
4.864659986576783
 20
-1.536128062989974
 42
5.599999999997489e-005
 10
4.722483521576557
 20
-1.487335117989847
 42
-0.005964999999999958
 10
4.33345751657664
 20
-1.348667377989985
 42
-0.009316000000000126
 10
4.002338816576627
 20
-1.21910612299
 42
-0.009939999999999716
 10
3.692592806576639
 20
-1.083934807989991
 42
-0.008328999999999972
 10
3.369465746576649
 20
-0.9286353079900032
 42
0.004305000000000181
 10
3.184694546576641
 20
-0.8379939829899996
 42
0.00843800000000006
 10
3.035801576576646
 20
-0.7696035829899968
 42
0.004453000000000007
 10
2.915368331576648
 20
-0.7180022779900036
 42
0.1813619999999949
 10
2.887346231576648
 20
-0.71696295799
 42
0.6107919999999692
 10
2.882868971576631
 20
-0.7461112129899892
 42
0.004114999999999906
 10
3.146179196576625
 20
-0.9334329379899895
 42
0.01036000000000007
 10
3.407638331576641
 20
-1.108265002989985
 42
0.03352999999999989
 10
3.590660066576643
 20
-1.208640397989987
 42
-0.01512000000000018
 10
3.651394721576647
 20
-1.23909854299
 42
-0.02983799999999988
 10
3.697251356576643
 20
-1.267513447989995
 42
-0.03499699999999942
 10
3.734367116576646
 20
-1.297796422990005
 42
-0.03250999999999978
 10
3.767887586576641
 20
-1.333672282989994
 10
3.82443856157665
 20
-1.402685287989989
 10
3.681481421576706
 20
-2.156467912990053
 42
0.0004250000000000163
 10
3.622850576576695
 20
-2.467056562990024
 42
0.0004280000000000259
 10
3.564897701576712
 20
-2.776951882990026
 42
0.0004170000000000147
 10
3.514854926576668
 20
-3.047073907990058
 42
0.001730000000000045
 10
3.485348996576633
 20
-3.210250522990039
 42
-0.0004809999999998351
 10
3.46443350657664
 20
-3.327592762989985
 42
-0.0006840000000001506
 10
3.445598861576642
 20
-3.431854357990053
 42
-0.0003789999999999566
 10
3.429489656576638
 20
-3.519958447990007
 42
-0.01007700000000009
 10
3.424701086576643
 20
-3.543369952989998
 42
-0.1969879999999881
 10
3.409657151576646
 20
-3.564853087989997
 42
-0.04059100000000013
 10
3.368020646576645
 20
-3.587048587989989
 42
-0.02023100000000022
 10
3.29211941657664
 20
-3.616327822989993
 42
-0.002986999999999927
 10
3.136106006576645
 20
-3.668329687989976
 42
-0.01161500000000001
 10
2.794574651576646
 20
-3.771189487989987
 42
-0.01302099999999998
 10
2.461345391576646
 20
-3.853889197989973
 42
-0.01132999999999993
 10
2.087515616576644
 20
-3.927553582989994
 42
-0.00587599999999997
 10
1.617739946576646
 20
-4.003437232989988
 10
1.181850701576644
 20
-4.068600532990004
 10
1.024117586576641
 20
-4.029847402989994
 42
-0.006223999999999867
 10
0.9402246715766427
 20
-4.008125107990003
 42
-0.03319600000000001
 10
0.8955068065766436
 20
-3.992699077990003
 42
-0.0673439999999994
 10
0.8706746515766474
 20
-3.978048157989992
 42
-0.1745790000000208
 10
0.8598388015766413
 20
-3.960672397989988
 42
-0.02168399999999978
 10
0.8560669615766443
 20
-3.938509402989983
 42
-0.0005790000000000298
 10
0.8437893265766334
 20
-3.840046327989982
 42
-0.001208999999999917
 10
0.8297738515766611
 20
-3.72427643299
 42
-0.0008270000000001858
 10
0.8143940965766456
 20
-3.592750522989981
 10
0.7754950765766488
 20
-3.255250522989989
 10
0.8135859115766458
 20
-2.040250522989979
 10
0.8516767465766429
 20
-0.8252505229900038
 10
0.9266458315766357
 20
-0.3827505229899977
 42
-0.002813000000000021
 10
0.9803905465766403
 20
-0.07601547799001157
 42
-0.01599199999999983
 10
1.015102211576643
 20
0.08599685200999804
 42
-0.030443
 10
1.046684576576644
 20
0.1866973420100067
 42
-0.07090800000000014
 10
1.084940756576646
 20
0.2556786070100109
 42
-0.07743299999999978
 10
1.130032346576644
 20
0.2992539820100102
 42
-0.04122300000000043
 10
1.197095081576647
 20
0.3386680870100081
 42
-0.02351499999999996
 10
1.303372196576646
 20
0.3838418620100015
 42
-0.005179000000000036
 10
1.489983521576641
 20
0.4508077120100089
 42
0.009398999999999942
 10
1.598175581576638
 20
0.4906664170100088
 42
0.005589000000000374
 10
1.725577271576641
 20
0.5419888420100047
 42
0.005592000000000158
 10
1.851486251576647
 20
0.5960126470099825
 42
0.009610000000000118
 10
1.954983521576649
 20
0.6441965470099982
 42
0.01544999999999992
 10
2.18166622157664
 20
0.7638955120100208
 42
0.02441299999999984
 10
2.36723368157664
 20
0.8816755270100218
 42
0.02355400000000026
 10
2.545039166576642
 20
1.020087787010004
 42
0.01316899999999991
 10
2.748482636576644
 20
1.203954907010005
 42
0.01229800000000012
 10
2.820556586576644
 20
1.276090972009994
 42
0.04334400000000013
 10
2.861424056576642
 20
1.327280332010007
 42
0.03746099999999984
 10
2.895764861576646
 20
1.388354962010006
 42
0.007542999999999813
 10
2.946881096576639
 20
1.502131387009994
 42
0.00800400000000016
 10
3.023287961576647
 20
1.687403902009993
 42
0.008017999999999926
 10
3.093679946576648
 20
1.874922202009997
 42
0.00839399999999998
 10
3.151193486576648
 20
2.044888282010007
 42
0.02036199999999962
 10
3.186364886576648
 20
2.172577057009995
 10
3.213712661576641
 20
2.290404622010001
 10
3.302261021576645
 20
2.283999622009997
 42
-0.03923599999999958
 10
3.357718106576646
 20
2.275581817010008
 42
-0.03351199999999997
 10
3.414281441576643
 20
2.258328007009998
 42
-0.02134799999999981
 10
3.487404266576649
 20
2.226914662010013
 42
-0.005459999999999967
  0
LWPOLYLINE
  5
56
100
AcDbEntity
  8
0
  6
ByLayer
 62
  256
370
   -1
100
AcDbPolyline
 90
   40
 70
    1
 43
0
 10
-7.772516478423356
 20
2.076732742010001
 42
-0.02723899999999997
 10
-7.434682818423354
 20
2.028194122010008
 42
-0.03181399999999999
 10
-7.121611068423355
 20
1.944652117010012
 42
-0.03355200000000012
 10
-6.836973198423351
 20
1.82716632701001
 42
-0.03852400000000005
 10
-6.584136693423352
 20
1.677136642010012
 42
-0.009963999999999903
 10
-6.522546648423359
 20
1.631996017009993
 42
-0.03940999999999948
 10
-6.487612938423353
 20
1.600658392010015
 42
-0.06246000000000208
 10
-6.466784418423352
 20
1.57245282701001
 42
-0.06416499999999928
 10
-6.453794883423365
 20
1.540227217009997
 42
-0.000710000000000052
 10
-6.446605698423355
 20
1.512487597009999
 42
-0.0002630000000000125
 10
-6.436555293423332
 20
1.473395077010007
 42
-0.0002600000000000575
 10
-6.425632263423353
 20
1.430723437009981
 42
-0.0003140000000000055
 10
-6.415415268423359
 20
1.390618462010003
 10
-6.391497678423355
 20
1.296487462009999
 10
-6.461025663423356
 20
1.161868462010005
 42
-0.005121000000000078
 10
-6.506802348423359
 20
1.075419442009994
 42
-0.06222900000000074
 10
-6.52860697842336
 20
1.044975097010013
 42
-0.144363999999983
 10
-6.550884258423359
 20
1.03167509201002
 42
-0.06347199999999896
 10
-6.585285063423356
 20
1.027362787010008
 42
-0.03989000000000003
 10
-6.702977193423355
 20
1.037012482010003
 42
-0.01966599999999997
 10
-6.850164003423351
 20
1.066982572010008
 42
-0.01626400000000014
 10
-7.027145673423357
 20
1.116483487010014
 42
-0.009236000000000187
 10
-7.238019318423362
 20
1.187236927010005
 10
-7.38602215842335
 20
1.239956512010011
 10
-7.761100293423365
 20
1.214506297009997
 42
-0.005764999999999823
 10
-8.063851173423355
 20
1.19746796201
 42
-0.01607400000000002
 10
-8.276634573423358
 20
1.19479851701002
 42
-0.02010000000000012
 10
-8.42638318842336
 20
1.20376329701
 42
-0.1101150000000039
 10
-8.502847218423353
 20
1.229046202010007
 42
-0.0843829999999987
 10
-8.542245243423361
 20
1.262708197009999
 42
-0.04060500000000044
 10
-8.580649473423348
 20
1.317165847010011
 42
-0.03028600000000007
 10
-8.620253673423349
 20
1.394652457010014
 42
-0.01331299999999996
 10
-8.66356701342335
 20
1.501442932010001
 10
-8.703567528423353
 20
1.608136402010011
 10
-8.625667698423353
 20
1.775497027010012
 10
-8.547767883423353
 20
1.942857652009998
 10
-8.321392173423352
 20
2.016503857009999
 42
-0.01044799999999995
 10
-8.15832333342335
 20
2.065811677009995
 42
-0.04088399999999983
 10
-8.055108063423356
 20
2.08577085701001
 42
-0.03983300000000002
 10
-7.948734588423351
 20
2.088927877010003
 42
-0.009569999999999967
  0
LWPOLYLINE
  5
57
100
AcDbEntity
  8
0
  6
ByLayer
 62
  256
370
   -1
100
AcDbPolyline
 90
   36
 70
    1
 43
0
 10
-5.403567168423357
 20
1.981652857009998
 10
-5.342516478423358
 20
1.871056222009997
 10
-5.342516478423358
 20
1.311635767009996
 10
-5.342516478423358
 20
0.7522153120100015
 10
-5.411595633423357
 20
0.6244542670100016
 42
-0.02457100000000002
 10
-5.508309513423357
 20
0.4648535770099977
 42
-0.02134099999999988
 10
-5.624598618423359
 20
0.3075545470100072
 42
-0.01710500000000023
 10
-5.776611003423359
 20
0.1319431870100027
 42
-0.007884000000000032
 10
-5.985677043423363
 20
-0.08650052298999356
 10
-6.174583623423354
 20
-0.2777505229899901
 10
-6.372875523423358
 20
-0.2777505229899901
 10
-6.571167423423354
 20
-0.2777505229899901
 10
-6.268091943423375
 20
0.01555310200998861
 42
0.002048999999999946
 10
-6.071723088423385
 20
0.2071552420099754
 42
0.02240299999999977
 10
-5.996635443423357
 20
0.2879524570100063
 42
0.04738600000000032
 10
-5.951427708423353
 20
0.352733002010005
 42
0.02607500000000023
 10
-5.908272408423352
 20
0.4393031020100082
 42
0.01229700000000006
 10
-5.851253793423354
 20
0.5797234870100066
 42
0.01349700000000002
 10
-5.803071693423359
 20
0.7185178570100187
 42
0.01383200000000003
 10
-5.763497508423356
 20
0.8564128120100055
 42
0.01450300000000001
 10
-5.732293323423342
 20
0.9941349370099992
 42
-0.001188000000000007
 10
-5.672604948423329
 20
1.294467517010018
 42
-0.003910000000000016
 10
-5.631201378423353
 20
1.492227937010008
 42
-0.005743999999999999
 10
-5.596854513423354
 20
1.641821677010007
 42
-0.007586000000000057
 10
-5.561935203423388
 20
1.777249477009928
 42
0.0001700000000000912
 10
-5.541006558423334
 20
1.853708827009914
 42
0.0001829999999998408
 10
-5.520619158423372
 20
1.928397922009893
 42
0.0001729999999999316
 10
-5.503153053423386
 20
1.992564517009963
 42
0.0008680000000001552
 10
-5.493451848423351
 20
2.028499477010001
 42
-0.008047000000000011
 10
-5.486476413423357
 20
2.052937657009998
 42
-0.01290100000000009
 10
-5.479656183423359
 20
2.073522907010002
 42
-0.006671999999999984
 10
-5.473364193423354
 20
2.090285887009997
 42
-0.3088909999998213
 10
-5.470489008423352
 20
2.092249477009994
 42
-0.2606149999996812
 10
-5.467045503423355
 20
2.090323837010012
 42
-0.001714999999999992
 10
-5.448408858423354
 20
2.059761712010001
 42
-0.006135
 10
-5.427394998423354
 20
2.02405172201
 42
-0.003807999999999975
  0
LWPOLYLINE
  5
58
100
AcDbEntity
  8
0
  6
ByLayer
 62
  256
370
   -1
100
AcDbPolyline
 90
   24
 70
    1
 43
0
 10
-7.08554934342335
 20
0.9676748770100141
 42
-0.01283000000000007
 10
-6.921855243423355
 20
0.9045026020099987
 42
-0.02271000000000004
 10
-6.790902648423355
 20
0.8429522920100124
 42
-0.02753400000000016
 10
-6.691558008423351
 20
0.7834233670100035
 42
-0.06708900000000027
 10
-6.628012383423357
 20
0.7266840070100073
 10
-6.574907538423354
 20
0.6646429420099977
 10
-6.595689078423357
 20
0.5946962020100052
 42
-0.01021599999999981
 10
-6.636560508423352
 20
0.4667649970100097
 42
-0.09475000000000092
 10
-6.665210223423354
 20
0.416564212010008
 42
-0.08544200000000031
 10
-6.711177063423357
 20
0.3784098670099851
 42
-0.007538999999999958
 10
-6.843616803423352
 20
0.3048070570100094
 10
-7.030016478423358
 20
0.2048646370100116
 10
-7.560608718423353
 20
0.2272618420100088
 10
-8.091200973423353
 20
0.2496590320100012
 10
-8.258108718423358
 20
0.3806360770100099
 10
-8.42501647842335
 20
0.5116131370100092
 10
-8.44279081842336
 20
0.6306813070100105
 42
-0.009603999999999856
 10
-8.460670008423351
 20
0.7685351020100059
 42
-0.1165309999999987
 10
-8.454209013423347
 20
0.8211238420099956
 42
-0.1357109999999975
 10
-8.424789093423353
 20
0.8619837970100017
 42
-0.01461599999999993
 10
-8.330988183423349
 20
0.9329602270099997
 10
-8.20001647842335
 20
1.026170977009997
 10
-7.726286208423355
 20
1.02671022701
 10
-7.252555953423354
 20
1.027249477009995
  0
LWPOLYLINE
  5
59
100
AcDbEntity
  8
0
  6
ByLayer
 62
  256
370
   -1
100
AcDbPolyline
 90
   42
 70
    1
 43
0
 10
-2.410037778423352
 20
-0.7420878379900202
 42
0.003614999999999943
 10
-2.37965071842336
 20
-1.481279572989978
 42
0.006409000000000032
 10
-2.342389818423346
 20
-2.09001156798996
 42
0.006981999999999975
 10
-2.292124188423355
 20
-2.660281972989984
 42
0.005462000000000109
 10
-2.222174883423349
 20
-3.277750522989976
 42
-0.002354000000000007
 10
-2.085961098423326
 20
-4.416818362989952
 42
-0.003271000000000043
 10
-1.975431423423331
 20
-5.438471062989968
 42
-0.002905000000000044
 10
-1.89517840842333
 20
-6.277003252989991
 42
-0.02240500000000003
 10
-1.877516478423354
 20
-6.670953457989988
 10
-1.877516478423354
 20
-6.791002762990004
 10
-1.918766478423356
 20
-6.781110022989999
 42
-0.06377999999999992
 10
-1.985951088423359
 20
-6.755609107989986
 42
-0.007092000000000016
 10
-2.129816568423356
 20
-6.676202587990007
 42
-0.008651999999999903
 10
-2.296928493423358
 20
-6.576976297989996
 42
-0.007341000000000317
 10
-2.470016478423367
 20
-6.466565482989976
 42
-0.03918399999999986
 10
-3.369230718423363
 20
-5.767494052989989
 42
-0.03813999999999988
 10
-4.15719562842336
 20
-4.93078376298999
 42
-0.03794700000000031
 10
-4.812477843423355
 20
-3.979718077989985
 42
-0.03791199999999989
 10
-5.316726003423359
 20
-2.940250522989996
 42
-0.01926100000000005
 10
-5.510105943423357
 20
-2.388936712989985
 42
-0.01879699999999983
 10
-5.662240968423362
 20
-1.819900642989991
 42
-0.0184080000000002
 10
-5.773870818423358
 20
-1.229419057989977
 42
-0.01678299999999988
 10
-5.845892628423348
 20
-0.6138448129899885
 10
-5.855981253423355
 20
-0.4924391029899908
 10
-5.625498858423353
 20
-0.4826404129900013
 42
-0.001145999999999938
 10
-5.497362543423394
 20
-0.4774869829899728
 42
-0.0002470000000000893
 10
-5.275455048423382
 20
-0.4691812279899921
 42
-0.0002580000000000633
 10
-5.018485848423381
 20
-0.4598227279900016
 42
-0.0002460000000000274
 10
-4.757516478423451
 20
-0.4505817679899309
 42
0.0005559999999999144
 10
-4.506634518423496
 20
-0.4415421529899675
 42
0.0007569999999999898
 10
-4.280308413423416
 20
-0.4327922329899394
 42
0.0004979999999999212
 10
-4.090236828423392
 20
-0.4249663879900047
 42
0.008597000000000151
 10
-4.028191158423356
 20
-0.4212802879899999
 42
0.05133200000000005
 10
-3.844232688423363
 20
-0.3879747979900046
 42
0.003813000000000032
 10
-3.354348543423361
 20
-0.2421558529900025
 42
0.005406999999999848
 10
-2.87147404842337
 20
-0.08867634798999147
 42
0.0227440000000001
 10
-2.587252353423352
 20
0.01961856701000642
 10
-2.455016478423358
 20
0.07701696701001026
 10
-2.444581398423357
 20
0.02338322201001117
 42
-0.03608100000000004
 10
-2.439763218423366
 20
-0.01656519799001366
 42
-0.0007010000000000233
 10
-2.430129738423346
 20
-0.2235978229900006
 42
-0.001683000000000039
 10
-2.420032473423333
 20
-0.4654208779900171
 42
-0.001126999999999985
  0
LWPOLYLINE
  5
5A
100
AcDbEntity
  8
0
  6
ByLayer
 62
  256
370
   -1
100
AcDbPolyline
 90
   28
 70
    1
 43
0
 10
4.301514401576642
 20
-1.53063537798999
 42
-0.004681000000000059
 10
4.48033612157665
 20
-1.594762327989996
 42
-0.007999999999999998
 10
4.628219636576644
 20
-1.652067217989989
 42
-0.00637399999999999
 10
4.744255586576648
 20
-1.700912002989996
 42
-0.08127499999999903
 10
4.783820441576643
 20
-1.726460422989995
 42
-0.2355880000000004
 10
4.807217381576642
 20
-1.786339792989999
 42
-0.07657199999999971
 10
4.783685231576642
 20
-1.88122913299
 42
-0.02464400000000001
 10
4.701790601576626
 20
-2.052856087990037
 42
-0.002087999999999891
 10
4.467681761576632
 20
-2.482750522989992
 42
0.007704000000000071
 10
4.203413126576642
 20
-2.98127921298999
 42
0.02193900000000005
 10
4.04030140157664
 20
-3.338674492990002
 42
0.02666100000000002
 10
3.927193061576641
 20
-3.667846747990004
 42
0.01691099999999997
 10
3.829253156576647
 20
-4.061500522989995
 10
3.804472091576641
 20
-4.177750522989989
 10
3.745977806576649
 20
-4.177750522989989
 10
3.687483521576649
 20
-4.177750522989989
 10
3.687483521576643
 20
-4.09362386299
 42
-0.01522299999999995
 10
3.692528876576638
 20
-3.927947572989985
 42
-0.002423000000000014
 10
3.713856236576635
 20
-3.603960892989986
 42
-0.002884999999999958
 10
3.739548086576644
 20
-3.268107052990012
 42
-0.006594999999999995
 10
3.763720436576648
 20
-3.015250522989993
 42
-0.01195899999999998
 10
3.83002688657665
 20
-2.517431842990014
 42
-0.01359400000000003
 10
3.917840276576657
 20
-2.044319827989993
 42
-0.01020599999999998
 10
4.011842831576647
 20
-1.644859882990005
 42
-0.1216019999999987
 10
4.086506786576651
 20
-1.506067327989992
 42
-0.09349399999999469
 10
4.112735711576649
 20
-1.486178182989998
 42
-0.1450319999999918
 10
4.140514511576641
 20
-1.481287177989985
 42
-0.05145500000000121
 10
4.18486148657665
 20
-1.491045397989985
 42
-0.003888000000000074
  0
LWPOLYLINE
  5
5B
100
AcDbEntity
  8
0
  6
ByLayer
 62
  256
370
   -1
100
AcDbPolyline
 90
   62
 70
    1
 43
0
 10
4.087179641576643
 20
-4.241657257989991
 42
-0.01825300000000004
 10
4.108999496576648
 20
-4.268505187989994
 42
-0.004905000000000032
 10
4.141644251576644
 20
-4.312705927989986
 42
-0.004962000000000042
 10
4.177758056576651
 20
-4.363678642990003
 42
-0.005114999999999968
 10
4.212483521576648
 20
-4.414847512989979
 10
4.294983521576642
 20
-4.539131047990004
 10
4.561075661576648
 20
-4.673440792989979
 10
4.827167801576646
 20
-4.807750522989991
 10
4.991254241576647
 20
-4.807750522989997
 42
-0.005984000000000041
 10
5.076586871576649
 20
-4.808771752989981
 42
-0.02584300000000029
 10
5.127138626576643
 20
-4.812601192989995
 42
-0.044674
 10
5.159460401576648
 20
-4.81971270798999
 42
-0.1204620000000075
 10
5.179421246576645
 20
-4.831831102989995
 42
-0.176608
 10
5.193272591576641
 20
-4.861577722989999
 42
-0.117350999999998
 10
5.187686261576647
 20
-4.899187207989982
 42
-0.04411900000000006
 10
5.157512096576641
 20
-4.958696617989991
 42
-0.005595000000000227
 10
5.07997388657664
 20
-5.080029502990003
 42
0.013428
 10
4.997750471576643
 20
-5.213247637989994
 42
0.02969400000000006
 10
4.944016211576645
 20
-5.319887347989991
 42
0.03893099999999972
 10
4.913237876576647
 20
-5.409874207990001
 42
0.06182999999999998
 10
4.902839546576649
 20
-5.490518527989991
 10
4.902483521576644
 20
-5.565786532989989
 10
5.058084896576641
 20
-5.720858362989992
 42
0.002649000000000047
 10
5.161356806576649
 20
-5.822694127989989
 42
0.0442369999999996
 10
5.198605331576645
 20
-5.853105172989989
 42
0.1616390000000246
 10
5.223976511576644
 20
-5.860284427989995
 42
0.1346280000000011
 10
5.250773006576646
 20
-5.851629997989992
 42
0.07410500000000192
 10
5.282539751576651
 20
-5.823316807990007
 42
0.07249400000000225
 10
5.304953531576645
 20
-5.786770822989979
 42
0.06296399999999984
 10
5.318143271576641
 20
-5.740841377989994
 42
0.0384909999999998
 10
5.322483521576645
 20
-5.684544727989994
 10
5.322483521576645
 20
-5.617750522989979
 10
5.172483521576645
 20
-5.617750522989979
 10
5.022483521576645
 20
-5.617750522989979
 10
5.022483521576645
 20
-5.486275432989991
 10
5.022483521576645
 20
-5.354800342989989
 10
5.208376496576644
 20
-5.169353677989989
 10
5.394269486576646
 20
-4.98390702799
 10
5.44907272157665
 20
-5.027078767989996
 42
-0.07825500000000046
 10
5.501434391576645
 20
-5.083582027989991
 42
-0.03146999999999994
 10
5.554649666576644
 20
-5.174768632989995
 42
-0.028115
 10
5.604194336576644
 20
-5.289033052989993
 42
-0.02168400000000001
 10
5.645581316576642
 20
-5.418434377989989
 10
5.683258706576642
 20
-5.556618232990004
 10
5.64507416657665
 20
-5.692428142989989
 42
-0.01331199999999971
 10
5.610315101576651
 20
-5.804513572990005
 42
-0.01811699999999999
 10
5.572674911576645
 20
-5.903443687989999
 42
-0.01861899999999984
 10
5.528860016576642
 20
-5.99723615299
 42
-0.01541200000000026
 10
5.475502781576644
 20
-6.093738472990005
 10
5.419983521576642
 20
-6.187226407989989
 10
4.827483521576644
 20
-6.187339267990005
 10
4.234983521576645
 20
-6.187452112989995
 10
4.124077871576645
 20
-6.123851317989988
 10
4.013172236576647
 20
-6.060250522989989
 10
3.872827871576643
 20
-5.701270417990003
 10
3.732483521576642
 20
-5.342290297990004
 10
3.732483521576642
 20
-5.016183367989989
 10
3.732483521576642
 20
-4.690076422989989
 10
3.81470498657665
 20
-4.501556632989988
 42
-0.010054
 10
3.910759256576644
 20
-4.292874367989988
 42
-0.08962099999999996
 10
3.970072466576641
 20
-4.211567437989991
 42
-0.2804600000000123
 10
4.024690766576645
 20
-4.199645197989991
 42
-0.1307090000000021
  0
LWPOLYLINE
  5
5C
100
AcDbEntity
  8
0
  6
ByLayer
 62
  256
370
   -1
100
AcDbPolyline
 90
   50
 70
    1
 43
0
 10
-1.446721383423357
 20
-5.301957487990004
 42
0.007434000000000022
 10
-1.14786084342337
 20
-5.411034652990008
 42
0.006242000000000048
 10
-0.8280051334233649
 20
-5.517956062989995
 42
0.006351999999999798
 10
-0.5135103184233689
 20
-5.614350772989996
 42
0.009010000000000016
 10
-0.2312650984233617
 20
-5.691460267989989
 10
0.07248629657664707
 20
-5.768591317990001
 10
1.043734901576644
 20
-5.764420927989988
 10
2.014983521576644
 20
-5.760250522989999
 10
2.465612171576633
 20
-5.653043962989997
 42
0.002220000000000184
 10
2.654043386576616
 20
-5.607330262990011
 42
0.002037000000000302
 10
2.847574601576628
 20
-5.558630992990025
 42
0.002034000000000208
 10
3.019910261576646
 20
-5.513770282989997
 42
0.006691000000000217
 10
3.133112171576642
 20
-5.48218349298998
 42
-0.003845000000000025
 10
3.311214101576642
 20
-5.431392982989984
 42
-0.0348970000000005
 10
3.390384146576645
 20
-5.415315727989992
 42
-0.08108099999999943
 10
3.442530686576645
 20
-5.416944487989999
 42
-0.07694000000000138
 10
3.492483521576651
 20
-5.434986967989991
 42
-0.1257850000000006
 10
3.593193071576646
 20
-5.528890612990006
 42
-0.03466699999999993
 10
3.698002196576642
 20
-5.720380297990006
 42
-0.02158300000000004
 10
3.824296631576651
 20
-6.029088577989988
 42
-0.00535500000000003
 10
4.003658426576635
 20
-6.545209192990008
 42
-0.0009269999999999394
 10
4.126019411576638
 20
-6.912111787989971
 42
-0.01284599999999995
 10
4.166584481576649
 20
-7.04591964798999
 42
-0.03479499999999996
 10
4.181175146576644
 20
-7.118231932989993
 42
-0.1792790000000024
 10
4.172202566576647
 20
-7.157389642990005
 42
-0.1675690000000004
 10
4.04975149157664
 20
-7.252170427990002
 42
-0.01446999999999995
 10
3.666473576576648
 20
-7.369772422989994
 42
-0.01455700000000001
 10
3.122720276576628
 20
-7.502643607990017
 42
-0.005481999999999899
 10
2.354755226576641
 20
-7.65798746299
 10
1.884526946576644
 20
-7.747750522989989
 10
1.219052831576644
 20
-7.747750522989989
 10
0.553578716576643
 20
-7.747750522989989
 10
0.2567811265766444
 20
-7.686652342989991
 42
-0.008246999999999996
 10
-0.2220953734233535
 20
-7.579810267989968
 42
-0.01156700000000013
 10
-0.6455653834233679
 20
-7.467548017989976
 42
-0.01276199999999987
 10
-1.02658705842336
 20
-7.346421922989988
 42
-0.01546100000000003
 10
-1.376982198423353
 20
-7.212834367989998
 10
-1.543947918423357
 20
-7.143193642989999
 10
-1.60576779342335
 20
-6.766722082989979
 42
-0.003714999999999791
 10
-1.67941633842333
 20
-6.296386792990013
 42
-0.005287000000000104
 10
-1.737322383423351
 20
-5.877360232989974
 42
-0.005343999999999938
 10
-1.777276443423353
 20
-5.534653837989963
 42
-0.02634900000000008
 10
-1.787516478423352
 20
-5.340473602989995
 42
-0.03274399999999995
 10
-1.78382707842335
 20
-5.284197262989984
 42
-0.05556900000000019
 10
-1.772531298423353
 20
-5.238426172989989
 42
-0.07644399999999926
 10
-1.755641028423357
 20
-5.207913847989992
 42
-0.2322020000000141
 10
-1.734936363423356
 20
-5.197750522989985
 42
-0.08612300000000031
 10
-1.723537338423354
 20
-5.199728632990006
 42
-0.0008230000000000562
 10
-1.643935683423355
 20
-5.228361322989993
 42
-0.002718000000000085
 10
-1.552410978423351
 20
-5.262016747989993
 42
-0.001752999999999997
  0
LWPOLYLINE
  5
5D
100
AcDbEntity
  8
0
  6
ByLayer
 62
  256
370
   -1
100
AcDbPolyline
 90
   22
 70
    1
 43
0
 10
5.029983521576645
 20
-6.338751202990004
 42
-0.01537999999999996
 10
5.139343661576647
 20
-6.354202657989997
 42
-0.018389
 10
5.241149531576648
 20
-6.375677452989987
 42
-0.01109300000000012
 10
5.32606952657665
 20
-6.398891962989987
 42
-0.4249160000001075
 10
5.334274091576641
 20
-6.414722392989994
 42
-0.1762029999999689
 10
5.32804729157662
 20
-6.422513527990041
 42
-0.0005139999999999085
 10
5.214478256576653
 20
-6.491625637990008
 42
-0.002901000000000273
 10
5.085182621576626
 20
-6.569103097990002
 42
-0.001797999999999931
 10
4.932483521576637
 20
-6.658665247990001
 10
4.534983521576645
 20
-6.889892842990001
 10
4.50262804157665
 20
-6.860017057989977
 42
-0.07275099999999976
 10
4.458762116576651
 20
-6.805769527989995
 42
-0.02196799999999998
 10
4.408681706576643
 20
-6.712060192989994
 42
-0.01391999999999989
 10
4.343750906576627
 20
-6.566286352989978
 42
-0.003459999999999861
 10
4.245825461576637
 20
-6.324128947989983
 42
-0.4843639999999823
 10
4.252371461576643
 20
-6.312821227989972
 42
-0.02765800000000044
 10
4.298498651576647
 20
-6.308722897989985
 42
-0.01440500000000008
 10
4.383845351576644
 20
-6.308338267989992
 42
-0.001863999999999976
 10
4.566218636576644
 20
-6.313451272989989
 42
-0.002855000000000104
 10
4.70198800157665
 20
-6.318540337989988
 42
-0.002830999999999972
 10
4.838065091576639
 20
-6.325191232989999
 42
-0.002776000000000008
 10
4.957026431576642
 20
-6.332343547990012
 42
-0.01100099999999993
  0
LWPOLYLINE
  5
5E
100
AcDbEntity
  8
0
  6
ByLayer
 62
  256
370
   -1
100
AcDbPolyline
 90
   32
 70
    1
 43
0
 10
1.306233521576642
 20
7.057912177009997
 42
0.009176000000000071
 10
1.293308261576647
 20
7.034279422010002
 42
0.01194299999999993
 10
1.282397591576641
 20
7.012159822010006
 42
0.009658000000000062
 10
1.274139086576646
 20
6.993417592010012
 42
0.09925500000000317
 10
1.272483521576643
 20
6.985159747010002
 42
0.2196620000000247
 10
1.275982736576647
 20
6.977579092010011
 42
0.01088000000000015
 10
1.297819451576642
 20
6.959771092009999
 42
0.01588600000000025
 10
1.325683991576645
 20
6.939429112009997
 42
0.01065399999999979
 10
1.358733521576641
 20
6.917892982009993
 42
-0.01696399999999988
 10
1.399023956576638
 20
6.890908207009996
 42
-0.007811999999999961
 10
1.449686651576645
 20
6.853212262010012
 42
-0.007727000000000027
 10
1.50178999157665
 20
6.811868302010007
 42
-0.01061600000000014
 10
1.547244161576644
 20
6.77300030201001
 42
0.009919999999999776
 10
1.587371591576638
 20
6.738590437010011
 42
0.0156680000000001
 10
1.623250496576643
 20
6.710878477010001
 42
0.009692000000000147
 10
1.653546191576642
 20
6.689841412010008
 42
0.2932860000001141
 10
1.662389066576645
 20
6.689691097010006
 42
0.347057999999995
 10
1.672221341576649
 20
6.716700607010011
 42
0.02368499999999995
 10
1.640988041576645
 20
6.798108292010007
 42
0.02838999999999997
 10
1.592975126576645
 20
6.892517797010001
 42
0.02554800000000005
 10
1.533000836576646
 20
6.984394162010006
 42
0.02972200000000005
 10
1.507391516576643
 20
7.015497022009996
 42
0.0283050000000002
 10
1.477875596576652
 20
7.043886142009999
 42
0.02918300000000037
 10
1.446427781576643
 20
7.06784241701001
 42
0.03832899999999969
 10
1.415047871576648
 20
7.085644162010011
 42
0.002224999999999837
 10
1.38899375657665
 20
7.097749777010015
 42
0.003459999999999972
 10
1.366411871576643
 20
7.107931477009999
 42
0.001052999999999992
 10
1.346762246576645
 20
7.116578527010001
 42
0.1109430000000119
 10
1.343896991576645
 20
7.117133947010016
 42
0.2460150000004289
 10
1.341608081576644
 20
7.115847712010009
 42
0.002484000000000057
 10
1.331219036576646
 20
7.099689892010019
 42
0.007313000000000009
 10
1.31945347157665
 20
7.080578137010001
 42
0.004593000000000065
  0
LWPOLYLINE
  5
5F
100
AcDbEntity
  8
0
  6
ByLayer
 62
  256
370
   -1
100
AcDbPolyline
 90
   12
 70
    1
 43
0
 10
-0.874844478423352
 20
7.034970067010011
 42
0.03182600000000016
 10
-0.9503061484233499
 20
7.001625952009991
 42
0.08481999999999779
 10
-0.997048488423352
 20
6.966170632010003
 42
0.5265099999999842
 10
-0.9931234084233553
 20
6.948336457010003
 42
0.1503459999999943
 10
-0.9587664784233529
 20
6.94535901701
 42
0.0316520000000006
 10
-0.8990297584233538
 20
6.962232547010001
 42
0.01103900000000008
 10
-0.8153797384233561
 20
6.993780937010002
 42
0.005655000000000166
 10
-0.7318551334233505
 20
7.028509072010009
 42
0.1541730000000016
 10
-0.7139975884233509
 20
7.043898082009995
 42
0.561859999999974
 10
-0.7196877634233581
 20
7.05509355701001
 42
0.03306399999999979
 10
-0.7663732684233511
 20
7.055590987010022
 42
0.03113200000000009
 10
-0.8243632534233581
 20
7.048734262010002
 42
0.043152
  0
LWPOLYLINE
  5
60
100
AcDbEntity
  8
0
  6
ByLayer
 62
  256
370
   -1
100
AcDbPolyline
 90
   16
 70
    1
 43
0
 10
-1.019393358423353
 20
6.212931697010006
 10
-1.082516478423353
 20
6.148613932010001
 10
-1.082516478423353
 20
5.882931697010001
 10
-1.082516478423353
 20
5.617249477010006
 10
-1.017631188423356
 20
5.617249477010009
 42
0.0803709999999988
 10
-0.9617937184233536
 20
5.626283242010002
 42
0.1252309999999936
 10
-0.9209745784233604
 20
5.652444607010015
 42
0.09391799999999767
 10
-0.8901121534233568
 20
5.701194277010011
 42
0.0315879999999998
 10
-0.8640040984233514
 20
5.781604252010005
 42
0.04628400000000008
 10
-0.8461724284233545
 20
5.893311667010011
 42
0.02345099999999981
 10
-0.8434784884233524
 20
6.035838607010021
 42
0.02055899999999992
 10
-0.8527775284233577
 20
6.170187322010015
 42
0.1179990000000003
 10
-0.8767520134233547
 20
6.236872447010009
 42
0.08804600000000246
 10
-0.904978548423351
 20
6.266828647010001
 42
0.2042119999999842
 10
-0.9344119684233496
 20
6.273925357010022
 42
0.1291809999999998
 10
-0.9698012284233535
 20
6.257984242010009
 42
0.02865899999999997
  0
LWPOLYLINE
  5
61
100
AcDbEntity
  8
0
  6
ByLayer
 62
  256
370
   -1
100
AcDbPolyline
 90
   20
 70
    1
 43
0
 10
0.9491016565766466
 20
6.000161242010009
 10
0.9130007815766441
 20
5.939749477010011
 10
0.9989921515766462
 20
5.929706062010009
 42
-0.03789100000000029
 10
1.080861821576641
 20
5.913789877010005
 42
-0.03622899999999944
 10
1.160674091576641
 20
5.885540677009992
 42
-0.02833899999999991
 10
1.250997866576647
 20
5.839741507010009
 42
-0.01187700000000008
 10
1.367314121576638
 20
5.768476522010013
 42
0.008981999999999846
 10
1.513846496576637
 20
5.677527652010009
 42
0.08262099999999943
 10
1.583303246576647
 20
5.650375927009994
 42
0.3068640000000134
 10
1.617945626576648
 20
5.664522862010008
 42
0.1479690000000026
 10
1.632483521576642
 20
5.712572167010009
 42
0.06355799999999971
 10
1.625664476576641
 20
5.765999542010007
 42
0.00916999999999997
 10
1.596046526576646
 20
5.872095892010007
 42
0.007022000000000023
 10
1.562493146576641
 20
5.978818432010009
 42
0.1077010000000004
 10
1.542983306576648
 20
6.011870992009994
 42
0.1788949999999728
 10
1.53254345657664
 20
6.017160232010019
 42
0.002103999999999956
 10
1.454770301576648
 20
6.025804567010001
 42
0.00604299999999997
 10
1.364026316576643
 20
6.034396477009998
 42
0.003870999999999963
 10
1.25847151157665
 20
6.04228275701
 10
0.985202546576644
 20
6.060573007010007
  0
LWPOLYLINE
  5
62
100
AcDbEntity
  8
0
  6
ByLayer
 62
  256
370
   -1
100
AcDbPolyline
 90
   30
 70
    1
 43
0
 10
0.0008138065766490898
 20
5.875999477009998
 42
-0.06540900000000033
 10
-0.03111643842335621
 20
5.813281537009997
 42
-0.009292000000000182
 10
-0.1153181434233579
 20
5.695367737009992
 42
-0.009526999999999765
 10
-0.2284118884233637
 20
5.548972417009993
 42
-0.005523000000000078
 10
-0.3695484934233626
 20
5.377219747009992
 42
0.001662000000000012
 10
-0.4413640084233599
 20
5.291188567010007
 42
0.002313999999999941
 10
-0.5050343284233492
 20
5.213670052010013
 42
0.001410000000000022
 10
-0.5581377184233502
 20
5.148025957010004
 42
0.02978699999999962
 10
-0.5726833084233517
 20
5.127556462009999
 42
0.1813980000000027
 10
-0.5780517934233551
 20
5.100984622009996
 42
0.05887400000000046
 10
-0.5669020834233609
 20
5.06179050701001
 42
0.0241269999999998
 10
-0.53578062342336
 20
4.996197322010016
 42
0.002856000000000357
 10
-0.4588840834233581
 20
4.854418117010006
 10
-0.325743948423358
 20
4.612249477009996
 10
-0.2531440984233573
 20
4.612249477010018
 42
0.05734299999999976
 10
-0.1586506084233568
 20
4.623122242010005
 42
0.2905270000000042
 10
-0.1231842334233569
 20
4.65924788201
 42
0.2195510000000056
 10
-0.1360827484233511
 20
4.716514312010005
 42
0.03730299999999992
 10
-0.2125164784233513
 20
4.802206417010005
 10
-0.3025164784233541
 20
4.889105677010008
 10
-0.3025164784233541
 20
5.077392007010012
 10
-0.3025164784233541
 20
5.265678322010011
 10
-0.1877836234233534
 20
5.452713907010006
 42
0.008566999999999846
 10
-0.1042354084233601
 20
5.594299327009996
 42
0.009611999999999964
 10
-0.02884071342336458
 20
5.733382747010008
 42
0.005932999999999723
 10
0.03292180157664069
 20
5.856290137010007
 42
0.1139369999999986
 10
0.04248352157664995
 20
5.897706022009999
 42
0.1498939999999981
 10
0.0377513365766487
 20
5.913136447010012
 42
0.3809460000000373
 10
0.02729006657664261
 20
5.915782072009994
 42
0.140789999999992
 10
0.01301888657664585
 20
5.902218442009995
 42
0.04773499999999951
  0
LWPOLYLINE
  5
63
100
AcDbEntity
  8
0
  6
ByLayer
 62
  256
370
   -1
100
AcDbPolyline
 90
   12
 70
    1
 43
0
 10
2.838728711576648
 20
5.415843337009997
 42
0.02410100000000011
 10
2.897967641576646
 20
5.369894842009998
 42
0.01357500000000026
 10
2.973872081576638
 20
5.319688732010007
 42
0.005256999999999899
 10
3.050575766576639
 20
5.273007547009994
 42
0.3429710000000698
 10
3.065055101576651
 20
5.274821062010004
 42
0.4336210000000225
 10
3.064067111576646
 20
5.304839302009993
 42
0.01770799999999999
 10
2.970698066576642
 20
5.380991512010006
 42
0.02196699999999994
 10
2.870156261576641
 20
5.450493202010004
 42
0.145639999999992
 10
2.812024226576646
 20
5.466686272009997
 42
0.09250400000000795
 10
2.79844396157664
 20
5.46390429701001
 42
0.4429450000000648
 10
2.796041591576644
 20
5.45732930201001
 42
0.08857899999999956
 10
2.80577851157665
 20
5.444791897010009
 42
0.006466999999999743
  0
LWPOLYLINE
  5
64
100
AcDbEntity
  8
0
  6
ByLayer
 62
  256
370
   -1
100
AcDbPolyline
 90
   18
 70
    1
 43
0
 10
2.772348461576646
 20
5.043499477010002
 42
-0.002588999999999933
 10
2.794462181576647
 20
5.01347229701001
 42
-0.001305999999999984
 10
2.82204919157665
 20
4.975395427010022
 42
-0.001297000000000042
 10
2.850346646576649
 20
4.935906742009998
 42
-0.001928999999999992
 10
2.874896111576651
 20
4.901177167009998
 42
0.007570999999999794
 10
2.896704221576648
 20
4.871052682009998
 42
0.01152600000000014
 10
2.916628616576648
 20
4.845633262010013
 42
0.006266999999999891
 10
2.93395946657665
 20
4.825073467009999
 42
0.2129890000000552
 10
2.939607401576644
 20
4.822427167010003
 42
0.2523640000001358
 10
2.943923771576645
 20
4.824652102010006
 42
0.03411999999999948
 10
2.94927455657664
 20
4.833737827010012
 42
0.03261299999999958
 10
2.954559371576641
 20
4.846278877010008
 42
0.02193100000000012
 10
2.959002476576651
 20
4.861181047009985
 42
0.1578400000000011
 10
2.95416691157665
 20
4.933039957009996
 42
0.06875799999999976
 10
2.906297936576646
 20
5.01711447701001
 42
0.06890699999999943
 10
2.83762009157664
 20
5.084825692009998
 42
0.1615629999999964
 10
2.770034981576642
 20
5.107249477010008
 10
2.724888206576644
 20
5.107249477010008
  0
LWPOLYLINE
  5
65
100
AcDbEntity
  8
0
  6
ByLayer
 62
  256
370
   -1
100
AcDbPolyline
 90
   60
 70
    1
 43
0
 10
0.9324999265766474
 20
4.580047612009999
 42
-0.005796000000000068
 10
0.9621105265766494
 20
4.462459492010005
 42
-0.05619100000000033
 10
0.9684005515766465
 20
4.41150861701
 42
-0.1241199999999994
 10
0.9601340515766517
 20
4.377195712009999
 42
-0.07026400000000146
 10
0.9350124115766485
 20
4.34227962701
 42
-0.09444600000000132
 10
0.8532000565766507
 20
4.284060457010007
 42
-0.02131700000000039
 10
0.6944544115766385
 20
4.219266892009994
 42
-0.015446
 10
0.4572627565766361
 20
4.142239447010009
 42
-0.00479600000000007
 10
0.09629690657663681
 20
4.040969392010012
 10
-0.1423896934233551
 20
3.976468432010009
 10
-0.3612030934233619
 20
4.00335567701
 42
-0.01415199999999995
 10
-0.7079759584233587
 20
4.055966257010004
 42
-0.04290800000000002
 10
-0.9381220984233539
 20
4.118333017009997
 42
-0.06396600000000054
 10
-1.097425878423358
 20
4.200894832009993
 42
-0.08568299999999997
 10
-1.213252158423354
 20
4.314760027010009
 42
0.01019200000000007
 10
-1.242569898423353
 20
4.353860947009998
 42
0.06526800000000048
 10
-1.260187098423353
 20
4.371173962009998
 42
0.1774390000000081
 10
-1.273520643423357
 20
4.375227247009999
 42
0.1894760000000418
 10
-1.285876848423357
 20
4.36955114201001
 42
0.02536199999999997
 10
-1.334936928423354
 20
4.313041462010004
 42
0.005501000000000042
 10
-1.413501198423358
 20
4.210385977010008
 42
0.001733000000000022
 10
-1.496270253423357
 20
4.09893149201001
 42
0.160173999999997
 10
-1.502516478423353
 20
4.079933452009996
 42
0.08110499999999905
 10
-1.496659998423354
 20
4.04406666701002
 42
0.005398999999999869
 10
-1.462302063423357
 20
3.945215272010011
 42
0.007079000000000034
 10
-1.426063578423357
 20
3.848783302010006
 42
0.04789999999999992
 10
-1.403027478423353
 20
3.803360497010014
 42
0.007445000000000043
 10
-1.39101864342335
 20
3.785029717010006
 42
0.003379000000000267
 10
-1.374785778423357
 20
3.761384122009998
 42
0.003344999999999896
 10
-1.357327863423355
 20
3.736672942010013
 42
0.004580999999999762
 10
-1.341263163423349
 20
3.714681952010011
 10
-1.303979898423356
 20
3.664614427010008
 10
-1.24700952342335
 20
3.720244507010008
 10
-1.190039148423353
 20
3.775874587010001
 10
-0.8434391434233508
 20
3.579062032010022
 10
-0.496839123423354
 20
3.382249477010006
 10
-0.11450137842335
 20
3.382249477010006
 10
0.267836351576642
 20
3.382249477010006
 10
0.5044546315766478
 20
3.500732812010021
 42
-0.003506999999999906
 10
0.7523396065766406
 20
3.622690912010022
 42
-0.004652999999999984
 10
0.9796408015766449
 20
3.729950932010007
 42
-0.003112000000000051
 10
1.172371721576645
 20
3.81726456701
 42
-0.05141899999999999
 10
1.239347906576649
 20
3.839192647010012
 42
-0.07825100000000199
 10
1.287084386576643
 20
3.841939087010005
 42
-0.2242729999999654
 10
1.314860786576646
 20
3.825290632010011
 42
-0.1267310000000031
 10
1.329177551576647
 20
3.784490272010011
 42
-0.02016299999999997
 10
1.333022966576646
 20
3.699162802010001
 10
1.333562411576642
 20
3.584749477010021
 10
1.368425381576645
 20
3.62736515201
 42
0.06494899999999947
 10
1.404200381576649
 20
3.684943837009995
 42
0.05462700000000004
 10
1.426608911576644
 20
3.753228802010006
 42
0.03443399999999995
 10
1.440123026576646
 20
3.849752677009993
 42
0.009040000000000213
 10
1.448273921576648
 20
4.005805312010011
 10
1.455986486576645
 20
4.231861147010008
 10
1.255484996576653
 20
4.382518207010014
 42
0.002433000000000145
 10
1.173889676576647
 20
4.443210112010004
 42
0.002704000000000166
 10
1.094521436576636
 20
4.500988522010019
 42
0.002499999999999969
 10
1.02632449157665
 20
4.549556617010014
 42
0.01410000000000012
 10
0.9890792065766426
 20
4.574260492009998
 10
0.9231748915766439
 20
4.615345732010006
  0
LWPOLYLINE
  5
66
100
AcDbEntity
  8
0
  6
ByLayer
 62
  256
370
   -1
100
AcDbPolyline
 90
   38
 70
    1
 43
0
 10
1.188756716576643
 20
4.153144642009998
 42
-0.388322000000003
 10
1.210851551576646
 20
4.108948702009997
 42
-0.107616000000001
 10
1.170837431576648
 20
4.034220697010006
 42
-0.05525200000000013
 10
1.069000526576647
 20
3.938512522010005
 42
-0.02803499999999984
 10
0.9224801815766415
 20
3.840846262010015
 42
-0.01923699999999986
 10
0.7415247265766438
 20
3.74353224701
 42
-0.01987400000000011
 10
0.5555541265766384
 20
3.66155123201001
 42
-0.0181669999999999
 10
0.3492180565766414
 20
3.588765277010015
 42
-0.01180600000000005
 10
0.1061354365766436
 20
3.519080347009989
 10
-0.06271266342335502
 20
3.474962497010011
 10
-0.3057805534233605
 20
3.527274787010025
 42
-0.01415100000000012
 10
-0.5642887384233638
 20
3.59061368201002
 42
-0.02349099999999995
 10
-0.7775947684233597
 20
3.660250642010011
 42
-0.02738000000000006
 10
-0.9569716384233583
 20
3.739770172010017
 42
-0.03493499999999969
 10
-1.111894923423355
 20
3.833028817010002
 42
-0.02039699999999994
 10
-1.173448938423354
 20
3.880065022010001
 42
-0.04553800000000009
 10
-1.215115098423354
 20
3.921639247010006
 42
-0.05553000000000012
 10
-1.243374138423356
 20
3.964347157010011
 42
-0.04861299999999963
 10
-1.263062388423353
 20
4.014152932010006
 42
-0.1373060000000027
 10
-1.263245103423356
 20
4.042731877009999
 42
-0.3219469999999534
 10
-1.24752753342335
 20
4.055477137010012
 42
-0.05049200000000071
 10
-1.201657248423354
 20
4.053527092009997
 42
-0.001832999999999932
 10
-1.028454078423356
 20
4.027872217010011
 42
0.009423999999999886
 10
-0.7952667184233604
 20
3.996942277010026
 42
0.01230099999999998
 10
-0.580923063423356
 20
3.977940052010014
 42
0.01267800000000004
 10
-0.3713132434233559
 20
3.969873037010007
 42
0.01117199999999995
 10
-0.1525164784233656
 20
3.971892667010003
 42
0.009487000000000134
 10
0.06587570657664446
 20
3.982940992009997
 42
0.01646399999999987
 10
0.2465052115766436
 20
4.001510287010011
 42
0.01783300000000013
 10
0.4151283115766387
 20
4.030634377010022
 42
0.01394800000000011
 10
0.595810586576641
 20
4.073815102010001
 42
-0.003162999999999999
 10
0.6692879065766446
 20
4.093059577010007
 42
-0.00270899999999995
 10
0.7468880515766416
 20
4.11241298201002
 42
-0.002728999999999927
 10
0.8175840565766418
 20
4.129229857010008
 42
-0.007807000000000039
 10
0.8669715265766491
 20
4.139883697010009
 42
-0.02363400000000003
 10
0.9525760465766419
 20
4.152785707010008
 42
-0.01528699999999992
 10
1.052539346576645
 20
4.159971337010009
 42
-0.01254900000000004
 10
1.144984256576649
 20
4.161458932010023
 42
-0.08958900000000224
  0
LWPOLYLINE
  5
67
100
AcDbEntity
  8
0
  6
ByLayer
 62
  256
370
   -1
100
AcDbPolyline
 90
   20
 70
    1
 43
0
 10
-0.4563656434233511
 20
3.142044067010003
 42
0.3930979999999956
 10
-0.4665514534233544
 20
3.104522617010006
 42
0.1601739999999978
 10
-0.4250373934233564
 20
3.064336957010005
 42
0.06326500000000018
 10
-0.3220898734233578
 20
3.02963427701
 42
0.0326619999999998
 10
-0.1871885434233496
 20
3.01152167201001
 42
0.008783999999999575
 10
-0.117883818423359
 20
3.00801192701
 42
0.04001400000000072
 10
-0.07758160842335377
 20
3.009905662009998
 42
0.06264100000000092
 10
-0.04740076842335457
 20
3.01767828701001
 42
0.046850999999999
 10
-0.0167635084233585
 20
3.033272167009999
 42
0.02259099999999972
 10
0.000580886576651618
 20
3.045384592010005
 42
0.04359400000000246
 10
0.0130552165766493
 20
3.056818822010008
 42
0.06794599999999949
 10
0.01939600157664509
 20
3.065967697009996
 42
0.3946940000000323
 10
0.01790855657664531
 20
3.071111887009997
 42
0.0579859999999978
 10
0.008435441576646996
 20
3.07536092201001
 42
0.002496000000000022
 10
-0.02646975342335434
 20
3.086189002010016
 42
0.004235000000000027
 10
-0.06810432342335537
 20
3.098492692010003
 42
0.003001999999999925
 10
-0.1150164784233508
 20
3.111620722010011
 42
0.0210080000000001
 10
-0.2213710234233544
 20
3.135945697010004
 42
0.02349099999999995
 10
-0.3255071284233565
 20
3.150181867010001
 42
0.02186600000000007
 10
-0.413802633423356
 20
3.154172557010011
 42
0.140430999999997
  0
ENDSEC
  0
SECTION
  2
OBJECTS
  0
DICTIONARY
  5
C
330
0
100
AcDbDictionary
281
    1
  3
ACAD_GROUP
350
D
  0
DICTIONARY
  5
D
330
C
100
AcDbDictionary
281
    1
  0
PLOTSETTINGS
  5
68
100
AcDbPlotSettings
  6
1x1
 40
0
 41
0
 42
0
 43
0
  0
ENDSEC
  0
EOF
